<?xml version="1.0" encoding="utf-8"?>
<!-- Generator: Adobe Illustrator 21.1.0, SVG Export Plug-In . SVG Version: 6.00 Build 0)  -->
<svg version="1.1" xmlns="http://www.w3.org/2000/svg" xmlns:xlink="http://www.w3.org/1999/xlink" x="0px" y="0px"
	 viewBox="0 0 365 425" style="enable-background:new 0 0 365 425;" xml:space="preserve">
<style type="text/css">
	.st0{display:none;fill:url(#SVGID_1_);}
	.st1{fill:url(#SVGID_2_);}
	.st2{fill:url(#SVGID_3_);}
	.st3{fill:url(#SVGID_4_);}
	.st4{fill:url(#SVGID_5_);}
	.st5{fill:url(#SVGID_6_);}
	.st6{display:none;}
	.st7{display:inline;fill:url(#SVGID_7_);}
	.st8{display:inline;fill:url(#SVGID_8_);}
	.st9{display:inline;fill:url(#SVGID_9_);}
	.st10{display:inline;fill:url(#SVGID_10_);}
	.st11{fill:url(#SVGID_11_);}
	.st12{fill:url(#SVGID_12_);}
	.st13{fill:url(#SVGID_13_);}
	.st14{fill:url(#SVGID_14_);}
	.st15{fill:url(#SVGID_15_);}
	.st16{fill:url(#SVGID_16_);}
	.st17{display:inline;}
	.st18{fill:#FFFFFF;}
</style>
<g id="Layer_1">
	
		<linearGradient id="SVGID_1_" gradientUnits="userSpaceOnUse" x1="129.2865" y1="-1674.1807" x2="-254.7128" y2="-1674.1807" gradientTransform="matrix(0 1 -1 0 -1491.6807 271.0752)">
		<stop  offset="0" style="stop-color:#B07515"/>
		<stop  offset="9.430934e-02" style="stop-color:#E1BA60"/>
		<stop  offset="0.1398" style="stop-color:#F5D77F"/>
		<stop  offset="0.2581" style="stop-color:#FFFFD7"/>
		<stop  offset="0.3602" style="stop-color:#F5D77F"/>
		<stop  offset="0.4892" style="stop-color:#B07515"/>
		<stop  offset="0.5727" style="stop-color:#E1BA60"/>
		<stop  offset="0.6129" style="stop-color:#F5D77F"/>
		<stop  offset="0.7366" style="stop-color:#FFFFD7"/>
		<stop  offset="0.8387" style="stop-color:#F5D77F"/>
		<stop  offset="1" style="stop-color:#B07515"/>
	</linearGradient>
	<path class="st0" d="M387.4,437.5V25.1H-22.4v412.5c70.9,5.2,141.8,10.3,212.7,15.5C256,447.8,321.7,442.7,387.4,437.5z"/>
	<g id="Layer_3">
		
			<linearGradient id="SVGID_2_" gradientUnits="userSpaceOnUse" x1="-2.3013" y1="387.5" x2="84.3013" y2="387.5" gradientTransform="matrix(1 0 0 2.7305 0 -735.4714)">
			<stop  offset="0" style="stop-color:#535353"/>
			<stop  offset="0.1344" style="stop-color:#E5E5E5"/>
			<stop  offset="0.2527" style="stop-color:#B8B8B8"/>
			<stop  offset="0.4493" style="stop-color:#FFFFFF"/>
			<stop  offset="0.6935" style="stop-color:#A7A7A7"/>
			<stop  offset="0.8387" style="stop-color:#CECECE"/>
			<stop  offset="1" style="stop-color:#535353"/>
		</linearGradient>
		<path class="st1" d="M41,220.2C39.9,250,36.4,285.6,28,325c-8.3,38.9-19.3,72.5-30.3,100c28.9,0,57.7,0,86.6,0
			c-10.6-27.5-21.2-60.3-29.3-98C46.4,287.1,42.5,250.9,41,220.2z"/>
		
			<linearGradient id="SVGID_3_" gradientUnits="userSpaceOnUse" x1="92.4122" y1="387.4804" x2="172.5" y2="387.4804" gradientTransform="matrix(1 0 0 3.4667 0 -1048.3334)">
			<stop  offset="0" style="stop-color:#535353"/>
			<stop  offset="0.1344" style="stop-color:#E5E5E5"/>
			<stop  offset="0.2527" style="stop-color:#B8B8B8"/>
			<stop  offset="0.4493" style="stop-color:#FFFFFF"/>
			<stop  offset="0.6935" style="stop-color:#A7A7A7"/>
			<stop  offset="0.8387" style="stop-color:#CECECE"/>
			<stop  offset="1" style="stop-color:#535353"/>
		</linearGradient>
		<path class="st2" d="M135.7,165c-1.1,37.9-4.6,83-13,133c-8.3,49.4-19.3,92-30.3,127c26.7,0,53.4,0,80.1,0
			c-6.7-28.3-15.8-71.3-22.8-124.4C139.6,223.5,135.8,161.6,135.7,165z"/>
		
			<linearGradient id="SVGID_4_" gradientUnits="userSpaceOnUse" x1="192.25" y1="387.481" x2="273.7282" y2="387.481" gradientTransform="matrix(1 0 0 3.4667 0 -1048.3334)">
			<stop  offset="0" style="stop-color:#535353"/>
			<stop  offset="0.1344" style="stop-color:#E5E5E5"/>
			<stop  offset="0.2527" style="stop-color:#B8B8B8"/>
			<stop  offset="0.4493" style="stop-color:#FFFFFF"/>
			<stop  offset="0.6935" style="stop-color:#A7A7A7"/>
			<stop  offset="0.8387" style="stop-color:#CECECE"/>
			<stop  offset="1" style="stop-color:#535353"/>
		</linearGradient>
		<path class="st3" d="M230.4,165c-0.1-3.4-2.9,57.9-13,133c-7.3,54.1-17.5,97.9-25.2,126.7c27.2,0.1,54.3,0.2,81.5,0.2
			c-10.6-34.9-21.2-76.6-29.3-124.4C235.8,249.9,231.9,204,230.4,165z"/>
		
			<linearGradient id="SVGID_5_" gradientUnits="userSpaceOnUse" x1="281.8391" y1="387.5" x2="368.4417" y2="387.5" gradientTransform="matrix(1 0 0 2.7305 0 -735.4714)">
			<stop  offset="0" style="stop-color:#535353"/>
			<stop  offset="0.1344" style="stop-color:#E5E5E5"/>
			<stop  offset="0.2527" style="stop-color:#B8B8B8"/>
			<stop  offset="0.4493" style="stop-color:#FFFFFF"/>
			<stop  offset="0.6935" style="stop-color:#A7A7A7"/>
			<stop  offset="0.8387" style="stop-color:#CECECE"/>
			<stop  offset="1" style="stop-color:#535353"/>
		</linearGradient>
		<path class="st4" d="M325.1,220.2c-1.1,29.8-4.6,65.4-13,104.8c-8.3,38.9-19.3,72.5-30.3,100c28.9,0,57.7,0,86.6,0
			c-10.6-27.5-21.2-60.3-29.3-98C330.5,287.1,326.6,250.9,325.1,220.2z"/>
		
			<linearGradient id="SVGID_6_" gradientUnits="userSpaceOnUse" x1="129.2405" y1="379.375" x2="229.7083" y2="379.375" gradientTransform="matrix(1 0 0 3.4667 0 -1048.3334)">
			<stop  offset="0" style="stop-color:#535353"/>
			<stop  offset="0.1344" style="stop-color:#E5E5E5"/>
			<stop  offset="0.2527" style="stop-color:#B8B8B8"/>
			<stop  offset="0.4493" style="stop-color:#FFFFFF"/>
			<stop  offset="0.6935" style="stop-color:#A7A7A7"/>
			<stop  offset="0.8387" style="stop-color:#CECECE"/>
			<stop  offset="1" style="stop-color:#535353"/>
		</linearGradient>
		<path class="st5" d="M183.6,103.8c-1.4,47.5-5.8,104.1-16.3,166.9c-10.4,62-24.3,115.5-38,159.3c33.5,0,67,0,100.5,0
			c-8.4-35.6-19.8-89.5-28.6-156.1C188.4,177.2,183.7,99.5,183.6,103.8z"/>
	</g>
	<g id="Layer_4" class="st6">
		<linearGradient id="SVGID_7_" gradientUnits="userSpaceOnUse" x1="20.8826" y1="300.213" x2="107.4851" y2="300.213">
			<stop  offset="0" style="stop-color:#8A4A25"/>
			<stop  offset="6.128130e-02" style="stop-color:#D57E4C"/>
			<stop  offset="0.1323" style="stop-color:#F4C168"/>
			<stop  offset="0.2242" style="stop-color:#F8EF99"/>
			<stop  offset="0.303" style="stop-color:#F3A528"/>
			<stop  offset="0.3758" style="stop-color:#DF6D15"/>
			<stop  offset="0.4777" style="stop-color:#7F3518"/>
			<stop  offset="0.4894" style="stop-color:#783117"/>
			<stop  offset="0.5068" style="stop-color:#642814"/>
			<stop  offset="0.5276" style="stop-color:#43170F"/>
			<stop  offset="0.5292" style="stop-color:#40160F"/>
			<stop  offset="0.5419" style="stop-color:#40160F"/>
			<stop  offset="0.6156" style="stop-color:#40160F"/>
			<stop  offset="0.6199" style="stop-color:#461710"/>
			<stop  offset="0.6362" style="stop-color:#571A12"/>
			<stop  offset="0.6566" style="stop-color:#621C14"/>
			<stop  offset="0.6852" style="stop-color:#691E15"/>
			<stop  offset="0.7646" style="stop-color:#6B1E15"/>
			<stop  offset="0.8858" style="stop-color:#40120E"/>
			<stop  offset="0.8863" style="stop-color:#42140E"/>
			<stop  offset="0.8972" style="stop-color:#753914"/>
			<stop  offset="0.908" style="stop-color:#A05818"/>
			<stop  offset="0.9184" style="stop-color:#C0701C"/>
			<stop  offset="0.9283" style="stop-color:#D8811E"/>
			<stop  offset="0.9375" style="stop-color:#E68B1F"/>
			<stop  offset="0.9455" style="stop-color:#EB8F20"/>
			<stop  offset="1" style="stop-color:#F6D77F"/>
		</linearGradient>
		<path class="st7" d="M83,175.8c-20.7,82.9-41.4,165.9-62.1,248.8h86.6C96.3,402.7,80.7,365.8,74,316.5
			C65.4,253.4,75.9,202.1,83,175.8z"/>
		<linearGradient id="SVGID_8_" gradientUnits="userSpaceOnUse" x1="97.5002" y1="272.5663" x2="176.5804" y2="272.5663">
			<stop  offset="0" style="stop-color:#8A4A25"/>
			<stop  offset="6.128130e-02" style="stop-color:#D57E4C"/>
			<stop  offset="0.1323" style="stop-color:#F4C168"/>
			<stop  offset="0.2242" style="stop-color:#F8EF99"/>
			<stop  offset="0.303" style="stop-color:#F3A528"/>
			<stop  offset="0.3758" style="stop-color:#DF6D15"/>
			<stop  offset="0.4777" style="stop-color:#7F3518"/>
			<stop  offset="0.4894" style="stop-color:#783117"/>
			<stop  offset="0.5068" style="stop-color:#642814"/>
			<stop  offset="0.5276" style="stop-color:#43170F"/>
			<stop  offset="0.5292" style="stop-color:#40160F"/>
			<stop  offset="0.5419" style="stop-color:#40160F"/>
			<stop  offset="0.6156" style="stop-color:#40160F"/>
			<stop  offset="0.6199" style="stop-color:#461710"/>
			<stop  offset="0.6362" style="stop-color:#571A12"/>
			<stop  offset="0.6566" style="stop-color:#621C14"/>
			<stop  offset="0.6852" style="stop-color:#691E15"/>
			<stop  offset="0.7646" style="stop-color:#6B1E15"/>
			<stop  offset="0.8858" style="stop-color:#40120E"/>
			<stop  offset="0.8863" style="stop-color:#42140E"/>
			<stop  offset="0.8972" style="stop-color:#753914"/>
			<stop  offset="0.908" style="stop-color:#A05818"/>
			<stop  offset="0.9184" style="stop-color:#C0701C"/>
			<stop  offset="0.9283" style="stop-color:#D8811E"/>
			<stop  offset="0.9375" style="stop-color:#E68B1F"/>
			<stop  offset="0.9455" style="stop-color:#EB8F20"/>
			<stop  offset="1" style="stop-color:#F6D77F"/>
		</linearGradient>
		<path class="st8" d="M155.8,119.1c-0.5-0.3-20.8,44.6-36.8,112C100.6,308.2,97.1,376.7,97.5,426c26.3,0,52.7,0,79,0
			c-23.1-33.7-53.4-88.9-54.9-158.8C119.9,187.2,156.4,119.4,155.8,119.1z"/>
		<linearGradient id="SVGID_9_" gradientUnits="userSpaceOnUse" x1="261.4072" y1="300.213" x2="343.8674" y2="300.213">
			<stop  offset="0" style="stop-color:#8A4A25"/>
			<stop  offset="6.128130e-02" style="stop-color:#D57E4C"/>
			<stop  offset="0.1323" style="stop-color:#F4C168"/>
			<stop  offset="0.2242" style="stop-color:#F8EF99"/>
			<stop  offset="0.303" style="stop-color:#F3A528"/>
			<stop  offset="0.3758" style="stop-color:#DF6D15"/>
			<stop  offset="0.4777" style="stop-color:#7F3518"/>
			<stop  offset="0.4894" style="stop-color:#783117"/>
			<stop  offset="0.5068" style="stop-color:#642814"/>
			<stop  offset="0.5276" style="stop-color:#43170F"/>
			<stop  offset="0.5292" style="stop-color:#40160F"/>
			<stop  offset="0.5419" style="stop-color:#40160F"/>
			<stop  offset="0.6156" style="stop-color:#40160F"/>
			<stop  offset="0.6199" style="stop-color:#461710"/>
			<stop  offset="0.6362" style="stop-color:#571A12"/>
			<stop  offset="0.6566" style="stop-color:#621C14"/>
			<stop  offset="0.6852" style="stop-color:#691E15"/>
			<stop  offset="0.7646" style="stop-color:#6B1E15"/>
			<stop  offset="0.8858" style="stop-color:#40120E"/>
			<stop  offset="0.8863" style="stop-color:#42140E"/>
			<stop  offset="0.8972" style="stop-color:#753914"/>
			<stop  offset="0.908" style="stop-color:#A05818"/>
			<stop  offset="0.9184" style="stop-color:#C0701C"/>
			<stop  offset="0.9283" style="stop-color:#D8811E"/>
			<stop  offset="0.9375" style="stop-color:#E68B1F"/>
			<stop  offset="0.9455" style="stop-color:#EB8F20"/>
			<stop  offset="1" style="stop-color:#F6D77F"/>
		</linearGradient>
		<path class="st9" d="M284.7,175.8c19.7,82.9,39.4,165.9,59.1,248.8h-82.5c10.6-21.9,25.5-58.8,31.9-108.1
			C301.5,253.4,291.5,202.1,284.7,175.8z"/>
		<linearGradient id="SVGID_10_" gradientUnits="userSpaceOnUse" x1="188.4197" y1="272.5663" x2="270.9146" y2="272.5663">
			<stop  offset="0" style="stop-color:#8A4A25"/>
			<stop  offset="6.128130e-02" style="stop-color:#D57E4C"/>
			<stop  offset="0.1323" style="stop-color:#F4C168"/>
			<stop  offset="0.2242" style="stop-color:#F8EF99"/>
			<stop  offset="0.303" style="stop-color:#F3A528"/>
			<stop  offset="0.3758" style="stop-color:#DF6D15"/>
			<stop  offset="0.4777" style="stop-color:#7F3518"/>
			<stop  offset="0.4894" style="stop-color:#783117"/>
			<stop  offset="0.5068" style="stop-color:#642814"/>
			<stop  offset="0.5276" style="stop-color:#43170F"/>
			<stop  offset="0.5292" style="stop-color:#40160F"/>
			<stop  offset="0.5419" style="stop-color:#40160F"/>
			<stop  offset="0.6156" style="stop-color:#40160F"/>
			<stop  offset="0.6199" style="stop-color:#461710"/>
			<stop  offset="0.6362" style="stop-color:#571A12"/>
			<stop  offset="0.6566" style="stop-color:#621C14"/>
			<stop  offset="0.6852" style="stop-color:#691E15"/>
			<stop  offset="0.7646" style="stop-color:#6B1E15"/>
			<stop  offset="0.8858" style="stop-color:#40120E"/>
			<stop  offset="0.8863" style="stop-color:#42140E"/>
			<stop  offset="0.8972" style="stop-color:#753914"/>
			<stop  offset="0.908" style="stop-color:#A05818"/>
			<stop  offset="0.9184" style="stop-color:#C0701C"/>
			<stop  offset="0.9283" style="stop-color:#D8811E"/>
			<stop  offset="0.9375" style="stop-color:#E68B1F"/>
			<stop  offset="0.9455" style="stop-color:#EB8F20"/>
			<stop  offset="1" style="stop-color:#F6D77F"/>
		</linearGradient>
		<path class="st10" d="M210.1,119.1c0.5-0.3,21.7,44.6,38.4,112c19.1,77.1,22.8,145.6,22.3,194.9c-27.5,0-55,0-82.5,0
			c24.1-33.7,55.7-88.9,57.3-158.8C247.5,187.2,209.5,119.4,210.1,119.1z"/>
	</g>
	<g id="Layer_2">
		
			<radialGradient id="SVGID_11_" cx="30.4122" cy="345" r="60.5182" gradientTransform="matrix(1 0 0 8 0 -2415)" gradientUnits="userSpaceOnUse">
			<stop  offset="0" style="stop-color:#B07515"/>
			<stop  offset="9.430934e-02" style="stop-color:#E1BA60"/>
			<stop  offset="0.1398" style="stop-color:#F5D77F"/>
			<stop  offset="0.2581" style="stop-color:#FFFFD7"/>
			<stop  offset="0.3602" style="stop-color:#F5D77F"/>
			<stop  offset="0.4892" style="stop-color:#B07515"/>
			<stop  offset="0.5727" style="stop-color:#E1BA60"/>
			<stop  offset="0.6129" style="stop-color:#F5D77F"/>
			<stop  offset="0.7366" style="stop-color:#FFFFD7"/>
			<stop  offset="0.8387" style="stop-color:#F5D77F"/>
			<stop  offset="1" style="stop-color:#B07515"/>
		</radialGradient>
		<path class="st11" d="M60.8,265c-4.3,26-12.4,62-28.4,100C21.6,390.5,10,410.3,0,425c19.1,0,38.2,0,57.3,0
			C58.4,371.7,59.6,318.3,60.8,265z"/>
		
			<radialGradient id="SVGID_12_" cx="92.4122" cy="261.5" r="117.7498" gradientTransform="matrix(1 0 0 8 0 -1830.5)" gradientUnits="userSpaceOnUse">
			<stop  offset="0" style="stop-color:#B07515"/>
			<stop  offset="9.430934e-02" style="stop-color:#E1BA60"/>
			<stop  offset="0.1398" style="stop-color:#F5D77F"/>
			<stop  offset="0.2581" style="stop-color:#FFFFD7"/>
			<stop  offset="0.3602" style="stop-color:#F5D77F"/>
			<stop  offset="0.4892" style="stop-color:#B07515"/>
			<stop  offset="0.5727" style="stop-color:#E1BA60"/>
			<stop  offset="0.6129" style="stop-color:#F5D77F"/>
			<stop  offset="0.7366" style="stop-color:#FFFFD7"/>
			<stop  offset="0.8387" style="stop-color:#F5D77F"/>
			<stop  offset="1" style="stop-color:#B07515"/>
		</radialGradient>
		<path class="st12" d="M124,98c-12.2,77.7-26.7,157.8-44,240c-6.2,29.4-12.6,58.4-19.2,87c19.1,0,38.2,0,57.3,0
			C120.1,316,122,207,124,98z"/>
		
			<radialGradient id="SVGID_13_" cx="147.9524" cy="236.5" r="134.818" gradientTransform="matrix(1 0 0 8 0 -1655.5)" gradientUnits="userSpaceOnUse">
			<stop  offset="0" style="stop-color:#B07515"/>
			<stop  offset="9.430934e-02" style="stop-color:#E1BA60"/>
			<stop  offset="0.1398" style="stop-color:#F5D77F"/>
			<stop  offset="0.2581" style="stop-color:#FFFFD7"/>
			<stop  offset="0.3602" style="stop-color:#F5D77F"/>
			<stop  offset="0.4892" style="stop-color:#B07515"/>
			<stop  offset="0.5727" style="stop-color:#E1BA60"/>
			<stop  offset="0.6129" style="stop-color:#F5D77F"/>
			<stop  offset="0.7366" style="stop-color:#FFFFD7"/>
			<stop  offset="0.8387" style="stop-color:#F5D77F"/>
			<stop  offset="1" style="stop-color:#B07515"/>
		</radialGradient>
		<path class="st13" d="M154,48c5.8,83.3,4,181.8-15.5,290c-5.5,30.5-12,59.5-19.2,87c19.1,0,38.2,0,57.3,0
			C169.1,299.3,161.5,173.7,154,48z"/>
		
			<radialGradient id="SVGID_14_" cx="334.5878" cy="345" r="60.5182" gradientTransform="matrix(1 0 0 8 0 -2415)" gradientUnits="userSpaceOnUse">
			<stop  offset="0" style="stop-color:#B07515"/>
			<stop  offset="9.430934e-02" style="stop-color:#E1BA60"/>
			<stop  offset="0.1398" style="stop-color:#F5D77F"/>
			<stop  offset="0.2581" style="stop-color:#FFFFD7"/>
			<stop  offset="0.3602" style="stop-color:#F5D77F"/>
			<stop  offset="0.4892" style="stop-color:#B07515"/>
			<stop  offset="0.5727" style="stop-color:#E1BA60"/>
			<stop  offset="0.6129" style="stop-color:#F5D77F"/>
			<stop  offset="0.7366" style="stop-color:#FFFFD7"/>
			<stop  offset="0.8387" style="stop-color:#F5D77F"/>
			<stop  offset="1" style="stop-color:#B07515"/>
		</radialGradient>
		<path class="st14" d="M304.2,265c4.3,26,12.4,62,28.4,100c10.8,25.5,22.4,45.3,32.4,60c-19.1,0-38.2,0-57.3,0
			C306.6,371.7,305.4,318.3,304.2,265z"/>
		
			<radialGradient id="SVGID_15_" cx="272.5878" cy="261.5" r="117.7498" gradientTransform="matrix(1 0 0 8 0 -1830.5)" gradientUnits="userSpaceOnUse">
			<stop  offset="0" style="stop-color:#B07515"/>
			<stop  offset="9.430934e-02" style="stop-color:#E1BA60"/>
			<stop  offset="0.1398" style="stop-color:#F5D77F"/>
			<stop  offset="0.2581" style="stop-color:#FFFFD7"/>
			<stop  offset="0.3602" style="stop-color:#F5D77F"/>
			<stop  offset="0.4892" style="stop-color:#B07515"/>
			<stop  offset="0.5727" style="stop-color:#E1BA60"/>
			<stop  offset="0.6129" style="stop-color:#F5D77F"/>
			<stop  offset="0.7366" style="stop-color:#FFFFD7"/>
			<stop  offset="0.8387" style="stop-color:#F5D77F"/>
			<stop  offset="1" style="stop-color:#B07515"/>
		</radialGradient>
		<path class="st15" d="M241,98c12.2,77.7,26.7,157.8,44,240c6.2,29.4,12.6,58.4,19.2,87c-19.1,0-38.2,0-57.3,0
			C244.9,316,243,207,241,98z"/>
		
			<radialGradient id="SVGID_16_" cx="217.0476" cy="236.5" r="134.818" gradientTransform="matrix(1 0 0 8 0 -1655.5)" gradientUnits="userSpaceOnUse">
			<stop  offset="0" style="stop-color:#B07515"/>
			<stop  offset="9.430934e-02" style="stop-color:#E1BA60"/>
			<stop  offset="0.1398" style="stop-color:#F5D77F"/>
			<stop  offset="0.2581" style="stop-color:#FFFFD7"/>
			<stop  offset="0.3602" style="stop-color:#F5D77F"/>
			<stop  offset="0.4892" style="stop-color:#B07515"/>
			<stop  offset="0.5727" style="stop-color:#E1BA60"/>
			<stop  offset="0.6129" style="stop-color:#F5D77F"/>
			<stop  offset="0.7366" style="stop-color:#FFFFD7"/>
			<stop  offset="0.8387" style="stop-color:#F5D77F"/>
			<stop  offset="1" style="stop-color:#B07515"/>
		</radialGradient>
		<path class="st16" d="M211,48c-5.8,83.3-4,181.8,15.5,290c5.5,30.5,12,59.5,19.2,87c-19.1,0-38.2,0-57.3,0
			C195.9,299.3,203.5,173.7,211,48z"/>
	</g>
</g>
<g id="Layer_5" class="st6">
	<g class="st17">
		<polygon class="st18" points="148.5,63.7 178.5,33.7 165.3,33.7 135.3,63.7 		"/>
		<polygon class="st18" points="189.1,44.3 208.4,63.7 195.3,63.7 175.9,44.3 		"/>
		<polygon class="st18" points="216.5,63.7 186.5,33.7 199.7,33.7 229.7,63.7 		"/>
		<polygon class="st18" points="194.4,64.6 165.3,93.7 178.4,93.7 207.5,64.6 		"/>
		<polygon class="st18" points="215.6,64.6 186.5,93.7 199.7,93.7 228.8,64.6 		"/>
		<polygon class="st18" points="171.2,86.4 149.4,64.6 136.2,64.6 164.6,93 		"/>
		<polygon class="st18" points="181.9,75.8 170.6,64.6 157.5,64.6 175.3,82.4 		"/>
		<polygon class="st18" points="190,43.4 192.5,40.9 185.9,34.3 176.8,43.4 		"/>
		<polygon class="st18" points="175.3,45 156.6,63.7 169.7,63.7 181.9,51.5 		"/>
	</g>
</g>
</svg>
