<?xml version="1.0" encoding="utf-8"?>
<!-- Generator: Adobe Illustrator 21.1.0, SVG Export Plug-In . SVG Version: 6.00 Build 0)  -->
<svg version="1.1" id="Layer_1" xmlns="http://www.w3.org/2000/svg" xmlns:xlink="http://www.w3.org/1999/xlink" x="0px" y="0px"
	 viewBox="0 0 365 425" style="enable-background:new 0 0 365 425;" xml:space="preserve">
<style type="text/css">
	.st0{fill:#ED2991;}
	.st1{fill:#8BD5E6;}
</style>
<g id="Layer_1_1_">
	<g>
		<polygon class="st0" points="52.7,212.5 167.4,97.8 116.9,97.8 2.2,212.5 		"/>
		<polygon class="st0" points="207.9,138.3 281.7,212.5 231.6,212.5 157.5,138.3 		"/>
		<polygon class="st0" points="312.7,212.5 198,97.8 248.1,97.8 362.8,212.5 		"/>
		<polygon class="st0" points="227.8,215.9 116.9,327.2 167,327.2 278.3,215.9 		"/>
		<polygon class="st0" points="309.3,215.9 198,327.2 248.1,327.2 359.3,215.9 		"/>
		<polygon class="st0" points="139.5,299.7 56.1,215.9 5.7,215.9 114.2,324.9 		"/>
		<polygon class="st0" points="180,258.8 137.2,215.9 86.7,215.9 154.8,284 		"/>
		<polygon class="st0" points="211.4,134.9 220.5,125.7 195.3,100.1 160.9,134.9 		"/>
		<polygon class="st0" points="154.8,141 83.3,212.5 133.7,212.5 180,166.2 		"/>
	</g>
</g>
<g id="VICE">
	<g>
		<path class="st1" d="M90.7,164.4c-0.1,1-0.6,2.7-1.5,5s-2.1,5-3.5,8.1s-3.1,6.6-5,10.4c-1.9,3.8-4,7.7-6.1,11.7
			c-2.2,4-4.4,8.1-6.8,12.3c-2.3,4.1-4.7,8.1-7,12c-3.9,6.4-7.7,12.3-11.3,17.6c-3.7,5.3-7,9.7-10,13.3c0.4,0.8,0.6,1.6,0.6,2.3
			c0,1.2-0.5,2.3-1.5,3.2s-2.3,1.7-4,2.3c-1.6,0.6-3.5,1.1-5.6,1.4s-4.2,0.5-6.4,0.5c-1.7,0-2.9-0.4-3.8-1.1
			c-0.9-0.8-1.3-1.7-1.3-2.9c0-1.5,0.3-2.6,1-3.6c0.7-0.9,1.5-1.6,2.5-2c-0.2-1.1-0.4-2.7-0.8-4.9s-0.8-4.7-1.2-7.5
			c-0.4-2.8-0.9-5.9-1.3-9.2c-0.5-3.3-0.9-6.7-1.3-10c-0.4-3.4-0.8-6.7-1.2-9.9s-0.6-6.2-0.8-8.8c-0.3-3.7-0.5-7.3-0.6-10.6
			c-0.2-3.3-0.2-6.4-0.2-9.4c0-2.8,0.1-5.4,0.2-7.7c0.2-2.4,0.4-4.4,0.6-6.3c0.3-1.9,0.9-3.7,1.9-5.4s2.1-3.3,3.4-4.7
			s2.8-2.5,4.3-3.3c1.6-0.8,3.1-1.2,4.6-1.2c1.7,0,2.9,0.7,3.6,2.1c0.7,1.4,1,3.4,1,6c0,1.7-0.1,3.5-0.4,5.6
			c-0.3,2.1-0.5,4.1-0.9,5.9c-0.3,2-0.6,3.6-0.8,4.8l-0.4,1.8c-0.2,0.9-0.3,2-0.3,3.3c-0.1,1.3-0.1,2.7-0.1,4.3
			c0,3.3,0.1,7.1,0.4,11.4c0.3,4.3,0.6,8.7,1,13.2c0.4,4.5,0.9,8.8,1.4,13.1c0.5,4.2,1.1,8,1.7,11.2c3.6-4.7,7.2-9.9,10.9-15.7
			c3.7-5.8,7.1-11.9,10.2-18.2c2.6-5.2,5.2-10.6,7.8-16.1s5.2-10.9,7.8-16.1c4.8-8.8,9.1-13.1,13.1-13.1c1.7,0,3,0.3,4.1,0.8
			s1.6,1.5,1.6,3C90.8,163.7,90.8,164.1,90.7,164.4z"/>
		<path class="st1" d="M128.4,258.5c-3.4-0.4-6.5-0.6-9.1-0.7c-2.7-0.1-5.2-0.2-7.5-0.2c-1.6,0-3.1,0-4.5,0.1
			c-1.5,0.1-3,0.1-4.4,0.1c-1.5,0-3,0.1-4.6,0.1c-1.6,0.1-3.3,0.1-5,0.1s-3-0.5-4-1.5c-0.9-1-1.4-2.2-1.4-3.7c0-0.6,0.1-1.2,0.2-1.8
			c0.2-0.5,0.8-1.1,1.8-1.7c1.1-0.6,2.5-1.2,4.2-1.7s3.8-1,6.1-1.4c2.3-0.4,4.8-0.7,7.5-0.9c2.7-5.9,5.5-11.8,8.4-17.8
			s5.9-11.8,8.8-17.5c3-5.7,5.8-11.1,8.6-16.3s5.4-9.9,7.8-14.2c2.4-4.3,4.6-8,6.6-11.2c1.9-3.2,3.5-5.6,4.8-7.2
			c-2.6,0.6-5.2,1.2-7.7,1.8s-5.3,1.3-8.4,1.9c-0.6,0.2-1.2,0.3-1.9,0.3c-1.5,0-2.7-0.5-3.5-1.6s-1.2-2.3-1.2-3.8
			c0-0.7,0.6-1.5,1.8-2.4s2.9-1.8,5.1-2.8c2.1-1,4.7-1.9,7.6-2.8c2.9-0.9,6.1-1.7,9.6-2.4c3.4-0.7,7.1-1.3,10.9-1.7
			c3.8-0.4,7.7-0.7,11.5-0.7c3.6,0,6.5,0.4,8.5,1.1c2,0.8,3.1,2,3.1,3.8c0,0.9-0.3,1.8-0.8,2.7s-1.2,1.7-2.1,2.4
			c-0.9,0.7-1.9,1.3-3.1,1.7c-1.2,0.4-2.4,0.7-3.7,0.7c-0.7,0-1.4,0-2-0.1s-1.3-0.1-2-0.1c-1.9,0-3.7,0-5.4,0.1s-3.2,0.2-4.7,0.3
			c0.1,0.5,0.2,0.9,0.2,1.2c0,0.7-0.1,1.4-0.4,2.1c-0.3,0.6-0.5,1.3-0.8,1.8c-1.6,3.4-3.5,7.4-5.8,12.2c-2.3,4.7-4.7,9.8-7.3,15.1
			s-5.2,10.8-7.9,16.2c-2.7,5.5-5.2,10.7-7.6,15.5c-2.4,4.9-4.5,9.2-6.4,13c-1.9,3.8-3.4,6.7-4.4,8.7c2.9,0.3,5.6,0.6,8,1
			c2.4,0.4,4.5,1,6.3,1.6c1.7,0.6,3.1,1.4,4.1,2.3c1,0.9,1.5,1.9,1.5,3c0,0.8-0.3,1.5-0.8,2.3c-0.5,0.8-1.2,1.4-2,2
			s-1.8,1.1-2.8,1.4s-2.1,0.5-3.2,0.5c-1.2,0-2.3-0.2-3.4-0.5C130.5,258.8,129.4,258.6,128.4,258.5z"/>
		<path class="st1" d="M257.5,160.9c0,1.4-0.2,3.1-0.7,5.1c-0.4,2-1.1,4-1.9,6.1c-0.8,2.1-1.8,4.2-3,6.3s-2.5,4-4,5.7
			s-3.1,3-4.9,4.1c-1.8,1-3.7,1.6-5.7,1.6c-0.5,0-1.1,0-1.8-0.1c-0.8-0.1-1.5-0.3-2.3-0.5c-0.8-0.3-1.4-0.7-1.9-1.3
			s-0.8-1.3-0.8-2.3c0-0.6,0.2-1.3,0.5-2.2c0.3-0.8,0.9-1.8,1.8-2.9c0.9-1,1.9-2.3,3-3.7s2.1-2.9,3-4.5s1.6-3.1,2.2-4.6
			c0.6-1.5,0.9-2.8,0.9-4c0-1.5-0.4-2.7-1.1-3.6c-0.7-0.9-1.9-1.4-3.6-1.4c-2.2,0-4.7,0.7-7.5,2.2s-5.7,3.4-8.8,6
			c-3.1,2.5-6.2,5.5-9.3,8.9c-3.2,3.4-6.2,7-9.2,10.9s-5.7,7.9-8.4,12c-2.6,4.2-4.9,8.3-6.8,12.4c-1.9,4.1-3.5,8-4.6,11.7
			c-1.1,3.8-1.7,7.2-1.7,10.2c0,3.8,1,6.8,3,9.1s5.4,3.4,10,3.4c2.2,0,5.4-0.8,9.7-2.5s7.9-3.4,10.8-5.1c2.9-1.7,5.8-3.5,8.7-5.6
			c2.9-2,5.7-4,8.4-5.9c2.6-1.9,5.1-3.6,7.2-5.1c2.2-1.5,4-2.6,5.4-3.2c0.3-0.2,0.6-0.3,0.9-0.3c0.8,0,1.3,0.6,1.6,1.9
			c0.3,1.3,0.4,2.7,0.4,4.3c0,0.9-0.1,2-0.3,3.2c-0.2,1.3-1,2.7-2.2,4.4c-0.6,0.7-1.6,1.8-3.2,3.4c-1.6,1.6-3.5,3.4-5.8,5.4
			s-5,4.1-8,6.3s-6.3,4.2-9.8,6s-8,3.6-13.5,5.4s-10.3,2.6-14.4,2.6c-4.8,0-8.9-0.6-12.4-1.7c-3.4-1.2-6.2-2.8-8.4-4.9
			s-3.8-4.5-4.8-7.4s-1.5-6-1.5-9.4c0-4.2,0.6-8.8,1.9-13.7c1.3-4.9,3.1-9.8,5.4-14.8c2.3-5,5.1-10,8.2-15.1
			c3.2-5,6.7-9.8,10.5-14.4c3.8-4.6,7.9-8.8,12.2-12.8c4.3-3.9,8.7-7.4,13.2-10.3c4.5-2.9,9-5.2,13.6-6.8c4.6-1.7,9-2.5,13.4-2.5
			c2.2,0,4.2,0.2,6.2,0.7s3.7,1.3,5.2,2.4s2.6,2.5,3.5,4.3C257,156.2,257.5,158.3,257.5,160.9z"/>
		<path class="st1" d="M326,252.1c1.7-5.9,3.5-11.7,5.1-17.7c0.1-0.5,0.3-1.1,0.4-1.6c-1.7,0.2-3.2,0.5-4.5,1.1
			c-1.8,0.8-3.5,1.8-5.2,3s-3.5,2.5-5.4,3.9s-4.4,2.7-7.5,3.9c-3,1.2-6.8,2.2-11.3,3s-10.2,1.2-16.9,1.2c-3.4,0-6.3-0.6-8.7-1.7
			c-2.5-1.1-4.5-2.7-6.1-4.6c-1.6-1.9-2.8-4.1-3.7-6.7c-0.8-2.5-1.2-5.2-1.2-8c0-3.5,0.8-6.6,2.5-9.2c1.7-2.7,3.9-5,6.6-6.8
			c2.7-1.9,5.8-3.3,9.2-4.2c3.4-1,6.9-1.4,10.3-1.4c6.4,0,11.7-0.2,16-0.7c4.2-0.5,7.6-1.1,10.1-1.8s4.3-1.5,5.4-2.4
			c1-0.9,1.6-1.7,1.6-2.5c0-0.5-0.2-1-0.5-1.5c-0.4-0.5-0.9-0.9-1.5-1.3c-0.6-0.4-1.3-0.6-2.1-0.9c-0.8-0.2-1.6-0.3-2.4-0.3
			c-3.3,0-6.4-0.3-9.5-1c-3.1-0.6-5.8-1.7-8.1-3.1c-2.4-1.4-4.2-3.3-5.7-5.5c-1.4-2.2-2.1-4.9-2.1-8c0-2.6,1.1-5,3.3-7.1
			c2.2-2.1,5-4,8.4-5.5s7.2-2.7,11.3-3.5c4.1-0.8,8-1.2,11.8-1.2c3.2,0,5.8,0.3,7.9,0.8s3.8,1.4,5.2,2.5c1.3,1.1,2.3,2.6,2.8,4.3
			c0.6,1.8,0.9,3.9,0.9,6.3c0,0.8,0,1.5,0.1,2.1s0.3,1.2,0.6,1.7c0.3,0.5,0.8,0.8,1.5,1.1c0.4,0.2,0.9,0.3,1.5,0.3
			c3.6-7.4,7.5-14.2,7.6-22.7c-1.5-1.6-3.1-3-5-4.2c-3-1.9-6.4-3.2-10.2-4.1c-3.8-0.9-7.8-1.3-12.1-1.3c-4.1,0-8.4,0.3-12.6,0.9
			c-4.3,0.6-8.4,1.5-12.4,2.6s-7.7,2.5-11.2,4.1s-6.5,3.5-9.1,5.6s-4.7,4.5-6.2,7c-1.5,2.6-2.3,5.3-2.3,8.4c0,3.1,0.9,6.2,2.6,9.3
			c1.8,3.1,4.8,6.3,9.2,9.6c-5.6,0.7-11,2-16,4c-5,1.9-9.4,4.4-13.1,7.3c-3.8,3-6.7,6.4-8.9,10.3c-2.2,3.9-3.3,8.2-3.3,13
			c0,5.5,1,10.4,2.9,14.5s4.6,7.6,8,10.3c3.4,2.7,7.3,4.8,11.8,6.2s9.3,2.1,14.5,2.1c5.6,0,11-0.4,16.2-1.2c5.2-0.8,10-1.8,14.5-3.1
			c4.5-1.3,8.6-2.7,12.3-4.3C324.1,253,325.1,252.6,326,252.1z"/>
	</g>
</g>
</svg>
