<?xml version="1.0" encoding="utf-8"?>
<!-- Generator: Adobe Illustrator 21.1.0, SVG Export Plug-In . SVG Version: 6.00 Build 0)  -->
<svg version="1.1" id="Layer_1" xmlns="http://www.w3.org/2000/svg" xmlns:xlink="http://www.w3.org/1999/xlink" x="0px" y="0px"
	 viewBox="0 0 226.6 233.8" style="enable-background:new 0 0 226.6 233.8;" xml:space="preserve">
<style type="text/css">
	.st0{display:none;fill:url(#SVGID_1_);}
	.st1{display:none;}
	.st2{display:inline;fill:url(#SVGID_2_);}
	.st3{display:inline;}
	.st4{font-family:'EBGaramond-Regular';}
	.st5{font-size:36.4071px;}
	.st6{fill:url(#SVGID_3_);}
	.st7{fill:url(#SVGID_4_);}
	.st8{fill:url(#SVGID_5_);}
	.st9{fill:url(#SVGID_6_);}
	.st10{fill:url(#SVGID_7_);}
	.st11{fill:url(#SVGID_8_);}
	.st12{fill:url(#SVGID_9_);}
	.st13{fill:url(#SVGID_10_);}
	.st14{fill:url(#SVGID_11_);}
	.st15{fill:url(#SVGID_12_);}
	.st16{fill:url(#SVGID_13_);}
	.st17{fill:url(#SVGID_14_);}
	.st18{fill:url(#SVGID_15_);}
	.st19{fill:url(#SVGID_16_);}
	.st20{fill:url(#SVGID_17_);}
</style>
<g id="Layer_1_1_">
	
		<radialGradient id="SVGID_1_" cx="113.35" cy="119.2" r="107.4985" gradientTransform="matrix(1 0 0 -1 0 236)" gradientUnits="userSpaceOnUse">
		<stop  offset="0" style="stop-color:#FFFBCC"/>
		<stop  offset="0.1146" style="stop-color:#FBF2BB"/>
		<stop  offset="0.3413" style="stop-color:#F0D98E"/>
		<stop  offset="0.3708" style="stop-color:#EED688"/>
		<stop  offset="0.6854" style="stop-color:#EBBB10"/>
		<stop  offset="1" style="stop-color:#C3922E"/>
	</radialGradient>
	<path class="st0" d="M106.2,29V13.7h-5.5v-2c0.7,0,1.4-0.1,2.1-0.2c0.7-0.1,1.3-0.3,1.9-0.7c0.6-0.3,1-0.7,1.4-1.2
		c0.4-0.6,0.7-1.2,0.7-2h2V29H106.2z M114.2,12.2c0.3-0.9,0.7-1.7,1.3-2.3c0.6-0.7,1.3-1.2,2.2-1.6c0.8-0.4,1.9-0.6,3-0.6
		c0.9,0,1.8,0.1,2.6,0.4c0.8,0.3,1.5,0.7,2.1,1.1c0.6,0.5,1,1.1,1.4,1.9s0.6,1.6,0.6,2.6c0,0.9-0.2,1.8-0.5,2.5
		c-0.3,0.7-0.7,1.4-1.1,2c-0.5,0.6-1,1.1-1.7,1.5c-0.7,0.5-1.2,0.9-1.9,1.3c-0.7,0.4-1.3,0.7-2,1.2s-1.2,0.8-1.8,1.2
		c-0.6,0.5-1,0.9-1.4,1.4s-0.7,1.1-0.7,1.8h10.8v2.2h-13.8c0.1-1.2,0.3-2.3,0.7-3.2c0.4-0.8,0.7-1.7,1.3-2.3
		c0.6-0.7,1.1-1.2,1.9-1.8c0.7-0.5,1.4-0.9,2.1-1.4c0.9-0.6,1.7-1,2.3-1.5s1.2-0.9,1.7-1.4s0.7-1,1-1.6s0.4-1.2,0.4-2
		c0-0.6-0.1-1.1-0.4-1.6c-0.2-0.5-0.5-0.8-0.8-1.2s-0.8-0.6-1.3-0.7s-1-0.3-1.6-0.3c-0.7,0-1.4,0.2-1.9,0.5
		c-0.6,0.3-0.9,0.7-1.3,1.2s-0.6,1-0.7,1.7c-0.2,0.7-0.2,1.2-0.2,1.9H114C113.8,14.2,113.9,13.2,114.2,12.2z M163.1,43.4V28.2h-5.5
		v-2.1c0.7,0,1.4-0.1,2.1-0.2s1.3-0.3,1.9-0.7c0.6-0.3,1-0.7,1.4-1.2c0.4-0.6,0.7-1.2,0.7-2h2v21.2L163.1,43.4L163.1,43.4z
		 M193.4,63c0.3-0.9,0.7-1.7,1.3-2.3s1.3-1.2,2.2-1.6c0.8-0.4,1.9-0.6,3-0.6c0.9,0,1.8,0.1,2.6,0.4c0.8,0.3,1.5,0.7,2.1,1.1
		c0.6,0.5,1,1.1,1.4,1.9c0.4,0.7,0.6,1.6,0.6,2.6c0,0.9-0.2,1.8-0.5,2.5s-0.7,1.4-1.1,2s-1,1.1-1.7,1.5c-0.7,0.5-1.2,0.9-1.9,1.3
		s-1.3,0.7-2,1.2s-1.2,0.8-1.8,1.2c-0.6,0.5-1,0.9-1.4,1.4s-0.7,1.1-0.7,1.8h10.8v2.2h-13.9c0.1-1.2,0.3-2.3,0.7-3.2
		c0.4-0.8,0.7-1.7,1.3-2.3s1.1-1.2,1.9-1.8c0.7-0.5,1.4-0.9,2.1-1.4c0.9-0.6,1.7-1,2.3-1.5c0.7-0.5,1.2-0.9,1.7-1.4s0.7-1,1-1.6
		s0.4-1.2,0.4-2c0-0.6-0.1-1.1-0.4-1.6c-0.2-0.5-0.5-0.8-0.8-1.2c-0.4-0.4-0.8-0.6-1.3-0.7c-0.5-0.2-1-0.3-1.6-0.3
		c-0.7,0-1.4,0.2-1.9,0.5c-0.6,0.3-0.9,0.7-1.3,1.2c-0.4,0.5-0.6,1-0.7,1.7c-0.2,0.7-0.2,1.2-0.2,1.9h-2.5
		C193,64.9,193.1,64,193.4,63L193.4,63z M210.9,115.3h0.8c0.6,0,1-0.1,1.5-0.2s0.9-0.4,1.3-0.7c0.4-0.3,0.7-0.7,0.8-1.1
		c0.2-0.5,0.4-0.9,0.4-1.5c0-1.1-0.4-2-1.1-2.5c-0.7-0.6-1.6-0.8-2.7-0.8c-0.7,0-1.3,0.1-1.8,0.4s-0.9,0.6-1.2,1
		c-0.4,0.4-0.6,0.9-0.7,1.5c-0.2,0.6-0.3,1.1-0.3,1.8h-2.5c0-1,0.2-2,0.5-2.8s0.7-1.6,1.2-2.1c0.6-0.6,1.2-1,2.1-1.4
		c0.8-0.4,1.8-0.5,2.8-0.5c0.9,0,1.8,0.1,2.5,0.4s1.5,0.6,2.1,1c0.6,0.5,1,1,1.4,1.8c0.4,0.7,0.5,1.6,0.5,2.5s-0.3,1.8-0.8,2.5
		c-0.6,0.7-1.2,1.3-2.1,1.7v0.1c1.3,0.3,2.2,0.9,2.9,1.9c0.7,0.9,0.9,2.1,0.9,3.4c0,1-0.2,2-0.6,2.8c-0.4,0.8-0.9,1.5-1.6,2.1
		s-1.4,0.9-2.3,1.2c-0.9,0.3-1.9,0.4-2.8,0.4c-1.1,0-2.1-0.2-2.9-0.5c-0.8-0.3-1.6-0.7-2.2-1.3c-0.7-0.6-1.1-1.3-1.4-2.1
		c-0.4-0.8-0.5-1.9-0.5-2.9h2.5c0,1.4,0.5,2.5,1.2,3.4c0.7,0.8,1.9,1.3,3.4,1.3c0.7,0,1.2-0.1,1.8-0.3c0.6-0.2,1-0.5,1.5-0.8
		c0.5-0.4,0.7-0.7,1-1.3c0.3-0.6,0.4-1.1,0.4-1.7c0-0.7-0.1-1.2-0.4-1.8c-0.3-0.6-0.6-0.9-0.9-1.3c-0.4-0.4-0.8-0.7-1.4-0.7
		c-0.6-0.1-1.1-0.3-1.8-0.3c-0.6,0-1,0-1.5,0.1L210.9,115.3C210.7,115.3,210.8,115.3,210.9,115.3L210.9,115.3z M207.7,170.1v2.2
		h-2.9v5h-2.4v-5H193v-2.4l9.6-13.8h2.1v14H207.7L207.7,170.1z M202.5,159.7l-7.1,10.4h7.1V159.7z M160.5,194l-1.1,6.1l0.1,0.1
		c0.5-0.6,1-0.9,1.8-1.1c0.7-0.3,1.5-0.4,2.1-0.4c0.9,0,1.9,0.2,2.6,0.5c0.8,0.3,1.6,0.7,2.1,1.4c0.7,0.7,1.1,1.4,1.5,2.2
		s0.6,2,0.6,3.2c0,0.9-0.2,1.8-0.5,2.6s-0.7,1.6-1.4,2.2s-1.4,1.2-2.3,1.6s-2,0.6-3.3,0.6c-0.9,0-1.8-0.1-2.6-0.4
		c-0.8-0.3-1.5-0.7-2.1-1.1c-0.7-0.5-1.1-1.1-1.5-1.9s-0.6-1.6-0.6-2.6h2.5c0,0.6,0.2,1,0.4,1.5s0.6,0.8,0.9,1.2
		c0.4,0.4,0.8,0.7,1.4,0.8s1.1,0.3,1.8,0.3c0.6,0,1.2-0.1,1.7-0.3c0.6-0.2,1-0.6,1.4-0.9c0.4-0.4,0.7-0.9,0.9-1.6
		c0.3-0.7,0.4-1.4,0.4-2.2c0-0.7-0.1-1.3-0.4-2c-0.3-0.7-0.6-1.1-0.9-1.5c-0.4-0.4-0.9-0.7-1.5-1s-1.2-0.4-2-0.4s-1.6,0.2-2.2,0.6
		s-1.2,0.8-1.7,1.5l-2.1-0.1l2-11H169v2.2L160.5,194L160.5,194z M116.3,207.7c-0.7-0.6-1.4-0.8-2.4-0.8c-1.1,0-2,0.3-2.6,0.7
		c-0.7,0.5-1.2,1.2-1.5,2s-0.7,1.7-0.7,2.6c-0.1,0.9-0.2,1.8-0.3,2.6l0.1,0.1c0.6-0.9,1.3-1.7,2.2-2.1c0.8-0.5,1.9-0.7,3.1-0.7
		c1,0,2,0.2,2.7,0.6c0.8,0.4,1.5,0.8,2.1,1.5s0.9,1.3,1.3,2.1c0.3,0.8,0.5,1.8,0.5,2.7c0,0.7-0.1,1.6-0.4,2.4s-0.7,1.6-1.2,2.2
		s-1.3,1.2-2.1,1.7c-0.9,0.5-2.1,0.7-3.4,0.7c-1.6,0-2.8-0.3-3.8-0.9s-1.7-1.5-2.2-2.4c-0.6-1-0.8-2.1-1-3.3s-0.3-2.3-0.3-3.5
		c0-1.5,0.1-2.9,0.4-4.2c0.3-1.4,0.7-2.6,1.3-3.6c0.6-1,1.4-1.9,2.4-2.5s2.2-0.9,3.7-0.9c1.8,0,3.2,0.5,4.2,1.4s1.6,2.2,1.8,4h-2.5
		C117.4,209,117,208.3,116.3,207.7L116.3,207.7z M111.8,214.7c-0.6,0.3-1,0.6-1.4,1s-0.7,0.9-0.8,1.5c-0.2,0.6-0.3,1.2-0.3,1.9
		s0.1,1.3,0.3,1.9s0.5,1.1,0.8,1.5s0.8,0.7,1.4,1s1.2,0.4,1.9,0.4s1.3-0.1,1.9-0.4c0.6-0.3,0.9-0.6,1.3-1c0.4-0.5,0.7-0.9,0.8-1.5
		c0.2-0.6,0.3-1.1,0.3-1.8s-0.1-1.3-0.3-1.9c-0.2-0.6-0.5-1.1-0.7-1.5c-0.4-0.5-0.8-0.7-1.3-1s-1.1-0.4-1.9-0.4
		C112.9,214.4,112.3,214.6,111.8,214.7L111.8,214.7z M68.2,197.7c-0.9,1.5-1.8,3-2.5,4.7s-1.3,3.4-1.8,5.1c-0.5,1.8-0.7,3.5-0.8,5.1
		h-2.8c0.1-1.8,0.4-3.5,0.8-5.2c0.5-1.7,1-3.4,1.8-4.9s1.6-3.1,2.5-4.5c0.9-1.4,2-2.7,3.1-3.8H57.6v-2.5h13.7v2.1
		C70.2,195,69.2,196.3,68.2,197.7L68.2,197.7z M21.8,159.2c0.4-0.7,0.8-1.2,1.4-1.7s1.2-0.8,2-1c0.7-0.3,1.5-0.4,2.3-0.4
		c1.1,0,2.1,0.2,3,0.5c0.8,0.3,1.5,0.7,2,1.2c0.5,0.5,0.8,1.1,1.1,1.8s0.4,1.3,0.4,2c0,0.9-0.3,1.9-0.7,2.6s-1.2,1.4-2.1,1.8
		c1.3,0.4,2.2,1,2.8,2c0.6,0.9,0.9,2.1,0.9,3.4c0,1-0.2,2-0.6,2.7c-0.4,0.8-0.8,1.5-1.5,2.1s-1.4,0.9-2.2,1.2
		c-0.8,0.3-1.8,0.4-2.7,0.4c-1,0-2-0.1-2.8-0.4c-0.8-0.3-1.7-0.7-2.2-1.2s-1.1-1.2-1.5-2.1c-0.4-0.8-0.6-1.8-0.6-2.8
		c0-1.2,0.3-2.3,0.9-3.3c0.7-0.9,1.6-1.6,2.7-2.1c-0.9-0.4-1.6-0.9-2.1-1.8c-0.6-0.8-0.8-1.7-0.8-2.6
		C21.2,160.6,21.4,159.8,21.8,159.2L21.8,159.2z M24.5,174.3c0.8,0.7,2,1.1,3.3,1.1c0.7,0,1.2-0.1,1.8-0.3c0.6-0.2,1-0.5,1.4-0.8
		c0.4-0.4,0.7-0.8,0.9-1.3c0.3-0.5,0.3-1,0.3-1.7c0-0.6-0.1-1.1-0.4-1.6c-0.3-0.5-0.6-0.9-0.9-1.3c-0.4-0.4-0.8-0.7-1.4-0.8
		c-0.6-0.2-1.1-0.3-1.7-0.3c-0.7,0-1.2,0.1-1.8,0.3s-1,0.5-1.4,0.8c-0.4,0.4-0.7,0.7-0.9,1.3c-0.2,0.5-0.4,1-0.4,1.7
		C23.2,172.5,23.6,173.6,24.5,174.3L24.5,174.3z M24.2,163.1c0.2,0.5,0.5,0.7,0.8,1c0.4,0.3,0.7,0.5,1.2,0.7
		c0.5,0.1,0.9,0.2,1.5,0.2c1,0,1.9-0.3,2.5-0.9c0.7-0.6,1-1.4,1-2.5s-0.4-1.9-1-2.4c-0.7-0.6-1.5-0.8-2.5-0.8
		c-0.5,0-0.9,0.1-1.4,0.2c-0.5,0.1-0.8,0.4-1.2,0.7c-0.4,0.3-0.6,0.7-0.7,1c-0.2,0.4-0.3,0.8-0.3,1.4C24,162.2,24,162.6,24.2,163.1z
		 M11.8,124.6c0.7,0.6,1.6,0.8,2.6,0.8c1.6,0,2.7-0.7,3.5-2.1s1.2-3.4,1.3-6.2l-0.1-0.1c-0.5,0.9-1.1,1.6-2.1,2.1
		c-0.8,0.6-1.9,0.7-2.9,0.7c-1.1,0-2.1-0.2-2.9-0.6c-0.8-0.4-1.5-0.8-2.1-1.5s-1-1.4-1.3-2.2c-0.3-0.8-0.5-1.9-0.5-2.9
		s0.2-2,0.5-2.8c0.4-0.8,0.8-1.6,1.4-2.1c0.7-0.7,1.4-1.1,2.2-1.4c0.8-0.4,1.8-0.5,2.8-0.5s2,0.2,2.8,0.5c0.8,0.3,1.7,0.8,2.3,1.6
		c0.7,0.7,1.2,1.8,1.6,3.1c0.4,1.3,0.6,3,0.6,5c0,3.6-0.6,6.4-1.8,8.4c-1.1,2-3,3-5.6,3c-1.8,0-3.3-0.5-4.4-1.3s-1.9-2.2-2-4.1h2.5
		C10.7,123.2,11.2,124,11.8,124.6z M18.5,111.3c-0.2-0.6-0.5-1.1-0.8-1.5c-0.4-0.4-0.8-0.8-1.4-1c-0.6-0.3-1.1-0.4-1.9-0.4
		s-1.4,0.1-2,0.4s-0.9,0.7-1.3,1.1c-0.4,0.5-0.6,1-0.7,1.6s-0.2,1.2-0.2,1.9c0,0.6,0.1,1.1,0.3,1.7s0.5,1,0.8,1.4
		c0.4,0.4,0.8,0.7,1.3,1s1,0.4,1.7,0.4s1.2-0.1,1.8-0.4s1-0.6,1.4-1c0.4-0.5,0.7-0.9,0.8-1.5c0.2-0.6,0.3-1.1,0.3-1.8
		C18.8,112.6,18.7,111.9,18.5,111.3z M20.3,78.7V63.6h-5.4v-2.1c0.7,0,1.4-0.1,2.1-0.2c0.7-0.1,1.3-0.3,1.9-0.7
		c0.6-0.3,1-0.7,1.4-1.2c0.4-0.6,0.7-1.2,0.7-2h2v21.2C22.9,78.7,20.3,78.7,20.3,78.7z M28.1,65.9c0-0.8,0.1-1.7,0.3-2.4
		c0.2-0.8,0.4-1.6,0.7-2.2c0.3-0.7,0.7-1.3,1.2-1.9c0.6-0.6,1.2-0.9,2-1.3c0.8-0.4,1.8-0.5,2.8-0.5c1.1,0,2.1,0.2,2.8,0.5
		s1.4,0.7,2,1.3s0.9,1.1,1.2,1.9c0.3,0.7,0.6,1.5,0.7,2.2c0.2,0.8,0.3,1.6,0.3,2.4s0.1,1.7,0.1,2.4c0,0.7,0,1.6-0.1,2.4
		s-0.1,1.7-0.3,2.4c-0.2,0.8-0.4,1.6-0.7,2.2c-0.3,0.7-0.7,1.3-1.2,1.9c-0.6,0.6-1.1,0.9-2,1.3c-0.8,0.4-1.7,0.5-2.8,0.5
		s-2.1-0.2-2.8-0.5s-1.4-0.7-2-1.3c-0.6-0.6-0.9-1.1-1.2-1.9s-0.6-1.5-0.7-2.2c-0.2-0.8-0.3-1.6-0.3-2.4S28,69,28,68.3
		C28.1,67.6,28.1,66.8,28.1,65.9z M30.8,71c0.1,1,0.2,1.9,0.5,2.8c0.3,0.8,0.7,1.6,1.3,2.2s1.4,0.9,2.5,0.9s1.9-0.3,2.5-0.9
		s1-1.3,1.3-2.2c0.3-0.8,0.5-1.8,0.5-2.8c0.1-1,0.1-1.9,0.1-2.7v-1.7c0-0.7-0.1-1.2-0.2-1.9c-0.1-0.7-0.2-1.2-0.4-1.9
		c-0.2-0.6-0.4-1.1-0.7-1.6c-0.4-0.5-0.7-0.8-1.2-1.1s-1.1-0.4-1.9-0.4c-0.7,0-1.3,0.1-1.9,0.4c-0.5,0.3-0.9,0.7-1.2,1.1
		c-0.4,0.5-0.6,0.9-0.7,1.6c-0.2,0.6-0.3,1.2-0.4,1.9c-0.1,0.7-0.1,1.2-0.2,1.9v1.7C30.8,69.1,30.8,70.1,30.8,71z"/>
	<g class="st1">
		
			<radialGradient id="SVGID_2_" cx="65.35" cy="202.5253" r="10.9745" gradientTransform="matrix(1 0 0 -1 0 236)" gradientUnits="userSpaceOnUse">
			<stop  offset="0" style="stop-color:#FFFBCC"/>
			<stop  offset="0.1146" style="stop-color:#FBF2BB"/>
			<stop  offset="0.3413" style="stop-color:#F0D98E"/>
			<stop  offset="0.3708" style="stop-color:#EED688"/>
			<stop  offset="0.6854" style="stop-color:#EBBB10"/>
			<stop  offset="1" style="stop-color:#C3922E"/>
		</radialGradient>
		<path class="st2" d="M59.5,44.1V28.9H54v-2.1c0.7,0,1.4-0.1,2.1-0.2c0.7-0.1,1.3-0.3,1.9-0.7c0.6-0.3,1-0.7,1.4-1.2
			c0.4-0.6,0.7-1.2,0.7-2h2V44L59.5,44.1L59.5,44.1z M74.1,44.1V28.9h-5.5v-2.1c0.7,0,1.4-0.1,2.1-0.2s1.3-0.3,1.9-0.7
			c0.6-0.3,1-0.7,1.4-1.2c0.4-0.6,0.7-1.2,0.7-2h2V44L74.1,44.1L74.1,44.1z"/>
	</g>
</g>
<g id="Numbers" class="st1">
	<text transform="matrix(1 0 0 1 95.2946 30.3573)" class="st3 st4 st5">12</text>
	<text transform="matrix(1 0 0 1 154.015 44.1233)" class="st3 st4 st5">1</text>
	<text transform="matrix(1 0 0 1 190.91 79.2797)" class="st3 st4 st5">2</text>
	<text transform="matrix(1 0 0 1 203.6695 127.9346)" class="st3 st4 st5">3</text>
	<text transform="matrix(1 0 0 1 190.91 178.4188)" class="st3 st4 st5">4</text>
	<text transform="matrix(1 0 0 1 154.015 213.7565)" class="st3 st4 st5">5</text>
	<text transform="matrix(1 0 0 1 103.1491 225.2129)" class="st3 st4 st5">6</text>
	<text transform="matrix(1 0 0 1 56.0893 214.7309)" class="st3 st4 st5">7</text>
	<text transform="matrix(1 0 0 1 17.5433 178.7565)" class="st3 st4 st5">8</text>
	<text transform="matrix(1 0 0 1 4.341 128.7829)" class="st3 st4 st5">9</text>
	<text transform="matrix(1 0 0 1 10.0152 78.3718)" class="st3 st4 st5">10</text>
	<text transform="matrix(1 0 0 1 45.4877 44.123)" class="st3 st4 st5">11</text>
</g>
<g id="Numbers_copy">
	<g>
		
			<radialGradient id="SVGID_3_" cx="104.5784" cy="217.1836" r="9.2452" gradientTransform="matrix(1 0 0 -1 0 236)" gradientUnits="userSpaceOnUse">
			<stop  offset="0" style="stop-color:#FFFBCC"/>
			<stop  offset="0.1146" style="stop-color:#FBF2BB"/>
			<stop  offset="0.3413" style="stop-color:#F0D98E"/>
			<stop  offset="0.3708" style="stop-color:#EED688"/>
			<stop  offset="0.6854" style="stop-color:#EBBB10"/>
			<stop  offset="1" style="stop-color:#C3922E"/>
		</radialGradient>
		<path class="st6" d="M98.8,30.3c-0.1-0.1-0.1-0.2-0.1-0.3c0-0.1,0.1-0.2,0.2-0.3c0.1-0.1,0.2-0.2,0.4-0.2c1.1-0.3,1.9-0.5,2.4-0.7
			s0.9-0.5,1.2-0.9c0.3-0.4,0.4-0.9,0.4-1.6V12.5c0-0.6-0.3-1.1-0.8-1.3s-1.3-0.4-2.3-0.5c-0.3,0-0.5-0.1-0.7-0.2
			c-0.2-0.1-0.3-0.2-0.3-0.4s0.1-0.3,0.3-0.4c0.2-0.1,0.4-0.2,0.7-0.2c1.3-0.2,2.4-0.4,3.2-0.7c0.8-0.3,1.5-0.8,2.3-1.5
			c0,0,0.1,0,0.2,0s0.2,0,0.3,0.1c0.1,0.1,0.1,0.1,0.1,0.2c-0.1,0.7-0.1,1.5-0.1,2.6v16.7c0,0.6,0.1,1.1,0.3,1.4
			c0.2,0.3,0.6,0.5,1,0.7c0.5,0.2,1.3,0.4,2.5,0.7c0.2,0,0.3,0.1,0.4,0.2s0.2,0.2,0.2,0.3c0,0.1,0,0.2-0.1,0.3
			c-0.1,0.1-0.2,0.1-0.4,0.1c-1,0-1.9,0-2.8-0.1c-1.1,0-2-0.1-2.6-0.1c-0.9,0-1.9,0-2.7,0.1c-1.2,0-2.1,0.1-2.7,0.1
			C99,30.5,98.9,30.4,98.8,30.3z"/>
		
			<radialGradient id="SVGID_4_" cx="121.9263" cy="217.0562" r="9.9158" gradientTransform="matrix(1 0 0 -1 0 236)" gradientUnits="userSpaceOnUse">
			<stop  offset="0" style="stop-color:#FFFBCC"/>
			<stop  offset="0.1146" style="stop-color:#FBF2BB"/>
			<stop  offset="0.3413" style="stop-color:#F0D98E"/>
			<stop  offset="0.3708" style="stop-color:#EED688"/>
			<stop  offset="0.6854" style="stop-color:#EBBB10"/>
			<stop  offset="1" style="stop-color:#C3922E"/>
		</radialGradient>
		<path class="st7" d="M126.6,30.4c-1.4-0.1-2.5-0.1-3.5-0.1c0.3,0-1.7,0-5.8,0.1l-2.6,0.1c-0.1,0-0.2-0.1-0.4-0.2
			c-0.2-0.2-0.3-0.3-0.3-0.4s0-0.2,0.1-0.3c0.1-0.1,0.1-0.1,0.2-0.2l6.2-6.4c1.3-1.3,2.3-2.8,3.1-4.3c0.8-1.6,1.1-3.1,1.1-4.7
			c0-1.3-0.4-2.3-1.1-3c-0.8-0.8-1.7-1.1-2.8-1.1c-1,0-1.9,0.3-2.7,0.8c-0.9,0.5-1.5,1.3-2.1,2.1c-0.1,0.1-0.2,0.3-0.3,0.4
			c-0.1,0.1-0.2,0.1-0.3,0.1s-0.2-0.1-0.3-0.3c-0.1-0.2-0.2-0.5-0.2-0.8c0-0.4,0.3-1,1-1.8s1.5-1.5,2.6-2s2.3-0.9,3.5-0.9
			c1.8,0,3.2,0.6,4.3,1.7c1,1.1,1.6,2.6,1.6,4.4c0,1-0.2,2-0.7,3.2s-1.1,2.2-1.9,3.2c-0.5,0.5-1.3,1.4-2.5,2.7
			c-1.2,1.2-2.1,2.1-2.6,2.7c-1.7,1.7-2.5,2.6-2.5,2.6c0,0.1,0,0.1,0.1,0.2s0.2,0.1,0.4,0.1c0.8,0.1,1.9,0.1,3.2,0.1
			c1.5,0,2.8,0,4.2-0.1c1.1,0,1.8-0.2,2.2-0.4c0.4-0.2,0.8-0.6,1.3-1.3c0.3-0.6,0.6-0.8,0.9-0.8c0.2,0,0.3,0.1,0.3,0.4
			c0,0.1-0.1,0.4-0.3,0.9c-0.4,1.3-0.7,2.2-0.8,2.7c-0.1,0.6-0.4,0.9-0.8,0.9L126.6,30.4z"/>
	</g>
	<g>
		
			<radialGradient id="SVGID_5_" cx="163.2988" cy="203.418" r="9.2453" gradientTransform="matrix(1 0 0 -1 0 236)" gradientUnits="userSpaceOnUse">
			<stop  offset="0" style="stop-color:#FFFBCC"/>
			<stop  offset="0.1146" style="stop-color:#FBF2BB"/>
			<stop  offset="0.3413" style="stop-color:#F0D98E"/>
			<stop  offset="0.3708" style="stop-color:#EED688"/>
			<stop  offset="0.6854" style="stop-color:#EBBB10"/>
			<stop  offset="1" style="stop-color:#C3922E"/>
		</radialGradient>
		<path class="st8" d="M157.5,44.1c-0.1-0.1-0.1-0.2-0.1-0.3s0.1-0.2,0.2-0.3s0.2-0.2,0.4-0.2c1.1-0.3,1.9-0.5,2.4-0.7
			s0.9-0.5,1.2-0.9s0.4-0.9,0.4-1.6V26.2c0-0.6-0.3-1.1-0.8-1.3c-0.5-0.2-1.3-0.4-2.3-0.5c-0.3,0-0.5-0.1-0.7-0.2s-0.3-0.2-0.3-0.4
			c0-0.2,0.1-0.3,0.3-0.4s0.4-0.2,0.7-0.2c1.3-0.2,2.4-0.4,3.2-0.7c0.8-0.3,1.5-0.8,2.3-1.5c0,0,0.1,0,0.2,0c0.1,0,0.2,0,0.3,0.1
			s0.1,0.1,0.1,0.2c-0.1,0.7-0.1,1.5-0.1,2.6v16.7c0,0.6,0.1,1.1,0.3,1.4c0.2,0.3,0.6,0.5,1,0.7s1.3,0.4,2.5,0.7
			c0.2,0,0.3,0.1,0.4,0.2c0.1,0.1,0.2,0.2,0.2,0.3s0,0.2-0.1,0.3s-0.2,0.1-0.4,0.1c-1,0-1.9,0-2.8-0.1c-1.1,0-2-0.1-2.6-0.1
			c-0.9,0-1.9,0-2.7,0.1c-1.2,0-2.1,0.1-2.7,0.1C157.7,44.2,157.6,44.2,157.5,44.1z"/>
	</g>
	<g>
		
			<radialGradient id="SVGID_6_" cx="200.0664" cy="168.1338" r="9.9156" gradientTransform="matrix(1 0 0 -1 0 236)" gradientUnits="userSpaceOnUse">
			<stop  offset="0" style="stop-color:#FFFBCC"/>
			<stop  offset="0.1146" style="stop-color:#FBF2BB"/>
			<stop  offset="0.3413" style="stop-color:#F0D98E"/>
			<stop  offset="0.3708" style="stop-color:#EED688"/>
			<stop  offset="0.6854" style="stop-color:#EBBB10"/>
			<stop  offset="1" style="stop-color:#C3922E"/>
		</radialGradient>
		<path class="st9" d="M204.7,79.3c-1.4-0.1-2.5-0.1-3.5-0.1c0.3,0-1.7,0-5.8,0.1l-2.6,0.1c-0.1,0-0.2-0.1-0.4-0.2
			c-0.2-0.2-0.3-0.3-0.3-0.4s0-0.2,0.1-0.3s0.1-0.1,0.2-0.2l6.2-6.4c1.3-1.3,2.3-2.8,3.1-4.3c0.8-1.6,1.1-3.1,1.1-4.7
			c0-1.3-0.4-2.3-1.1-3c-0.8-0.8-1.7-1.1-2.8-1.1c-1,0-1.9,0.3-2.7,0.8c-0.9,0.5-1.5,1.3-2.1,2.1c-0.1,0.1-0.2,0.3-0.3,0.4
			c-0.1,0.1-0.2,0.1-0.3,0.1s-0.2-0.1-0.3-0.3s-0.2-0.5-0.2-0.8c0-0.4,0.3-1,1-1.8s1.5-1.5,2.6-2c1.1-0.6,2.3-0.9,3.5-0.9
			c1.8,0,3.2,0.6,4.3,1.7c1,1.1,1.6,2.6,1.6,4.4c0,1-0.2,2-0.7,3.2s-1.1,2.2-1.9,3.2c-0.5,0.5-1.3,1.4-2.5,2.7
			c-1.2,1.2-2.1,2.1-2.6,2.7c-1.7,1.7-2.5,2.6-2.5,2.6c0,0.1,0,0.1,0.1,0.2c0.1,0,0.2,0.1,0.4,0.1c0.8,0.1,1.9,0.1,3.2,0.1
			c1.5,0,2.8,0,4.2-0.1c1.1,0,1.8-0.2,2.2-0.4c0.4-0.2,0.8-0.6,1.3-1.3c0.3-0.6,0.6-0.8,0.9-0.8c0.2,0,0.3,0.1,0.3,0.4
			c0,0.1-0.1,0.4-0.3,0.9c-0.4,1.3-0.7,2.2-0.8,2.7c-0.1,0.6-0.4,0.9-0.8,0.9L204.7,79.3z"/>
	</g>
	<g>
		
			<radialGradient id="SVGID_7_" cx="212.5713" cy="118.8418" r="9.9501" gradientTransform="matrix(1 0 0 -1 0 236)" gradientUnits="userSpaceOnUse">
			<stop  offset="0" style="stop-color:#FFFBCC"/>
			<stop  offset="0.1146" style="stop-color:#FBF2BB"/>
			<stop  offset="0.3413" style="stop-color:#F0D98E"/>
			<stop  offset="0.3708" style="stop-color:#EED688"/>
			<stop  offset="0.6854" style="stop-color:#EBBB10"/>
			<stop  offset="1" style="stop-color:#C3922E"/>
		</radialGradient>
		<path class="st10" d="M207.8,129c-0.6-0.2-1.2-0.4-1.6-0.6c-0.4-0.2-0.7-0.5-0.7-0.7c0-0.3,0.2-0.6,0.6-1c0.4-0.4,0.7-0.6,1-0.6
			c0.2,0,0.4,0,0.6,0.1c0.2,0.1,0.4,0.2,0.5,0.3c0.2,0.1,0.3,0.2,0.3,0.3c0.4,0.3,0.8,0.6,1.2,0.8c0.4,0.2,0.9,0.3,1.5,0.3
			c0.9,0,1.7-0.2,2.5-0.7s1.5-1.1,2-1.9s0.8-1.7,0.8-2.7c0-1.5-0.4-2.9-1.1-4c-0.8-1.2-1.8-1.7-3.1-1.7c-0.9,0-1.7,0.2-2.4,0.5
			c0,0-0.1,0-0.2,0c-0.1,0-0.2,0-0.3-0.1s-0.1-0.2-0.1-0.3c0.2-0.6,0.5-1,1.1-1.2c1-0.5,2-1.1,3-2c1-0.8,1.5-1.8,1.5-2.9
			c0-1-0.3-1.9-1-2.7c-0.7-0.8-1.5-1.1-2.4-1.1c-1.2,0-2.1,0.2-2.7,0.7c-0.6,0.5-1.2,1.1-1.7,1.9c-0.1,0.2-0.2,0.3-0.3,0.4
			s-0.2,0.2-0.2,0.2c-0.1,0-0.2-0.1-0.4-0.2c-0.1-0.1-0.2-0.3-0.2-0.5c0-0.5,0.3-1.1,0.8-1.9s1.3-1.4,2.4-2c1.1-0.6,2.3-0.9,3.8-0.9
			c0.8,0,1.6,0.2,2.3,0.5c0.7,0.4,1.3,0.8,1.8,1.5c0.4,0.6,0.7,1.3,0.7,2.1c0,1-0.3,1.9-0.9,2.9c-0.6,0.9-1.6,1.8-2.9,2.6
			c-0.1,0-0.1,0.1-0.1,0.1s0,0.1,0.1,0.1c1,0,1.9,0.3,2.8,0.8c0.8,0.5,1.5,1.2,2,2.1s0.7,1.8,0.7,2.8c0,1.7-0.5,3.3-1.5,4.6
			c-1,1.3-2.2,2.4-3.8,3.1s-3.2,1.1-4.9,1.1C209,129.3,208.4,129.2,207.8,129z"/>
	</g>
	<g>
		
			<radialGradient id="SVGID_8_" cx="200.0298" cy="69.2134" r="10.2201" gradientTransform="matrix(1 0 0 -1 0 236)" gradientUnits="userSpaceOnUse">
			<stop  offset="0" style="stop-color:#FFFBCC"/>
			<stop  offset="0.1146" style="stop-color:#FBF2BB"/>
			<stop  offset="0.3413" style="stop-color:#F0D98E"/>
			<stop  offset="0.3708" style="stop-color:#EED688"/>
			<stop  offset="0.6854" style="stop-color:#EBBB10"/>
			<stop  offset="1" style="stop-color:#C3922E"/>
		</radialGradient>
		<path class="st11" d="M198.1,178.4c-0.1-0.1-0.2-0.2-0.2-0.3s0.1-0.2,0.2-0.3c0.1-0.1,0.3-0.1,0.5-0.1c1.1-0.1,1.8-0.4,2.2-0.7
			s0.6-0.8,0.6-1.4v-3.4c0-0.1-0.1-0.2-0.2-0.2s-0.3-0.1-0.3-0.1c-1.4,0-2.7,0-4.1,0.1c-1.1,0-2.6,0.1-4.7,0.1c-0.1,0-0.2,0-0.3-0.1
			s-0.1-0.2-0.1-0.2v-0.1l0.8-1c0.1-0.1,0.3-0.4,0.6-0.7l9.6-13.8c0.5-0.7,0.8-1,1.1-1h0.8c0,0,0.1,0,0.1,0.1s0,0.2-0.1,0.2
			c0,0.1-0.1,0.1-0.1,0.2l-9.8,14.1c0,0.1-0.1,0.1-0.1,0.2c0,0.1,0,0.1,0.1,0.1h6.3c0.1,0,0.2,0,0.3-0.1s0.1-0.1,0.1-0.2v-5.6
			c0-0.3,0-0.4,0.1-0.5c0-0.1,0.1-0.2,0.3-0.3c0.3-0.2,0.7-0.3,1.1-0.4c0.4-0.1,0.7-0.1,1-0.1c0.2,0,0.4,0.2,0.5,0.5
			s0.1,0.9,0.1,1.8v4.7c0,0.1,0.1,0.2,0.2,0.2c0.4,0,0.8,0,1.5,0c0.4,0,1.1,0,2.1-0.1c0.1,0,0.2,0,0.3,0.1s0.1,0.1,0.1,0.2
			c0,0.3-0.1,0.6-0.3,0.9c-0.2,0.3-0.4,0.5-0.5,0.5h-1.8c-0.4,0-0.7,0-1.1,0.1c-0.1,0-0.2,0.1-0.3,0.1s-0.2,0.1-0.2,0.1v3.4
			c0,0.7,0.2,1.2,0.5,1.5s1,0.5,2,0.8c0.2,0,0.3,0.1,0.5,0.2c0.1,0.1,0.2,0.2,0.2,0.3s-0.1,0.2-0.2,0.3c-0.1,0.1-0.2,0.1-0.4,0.1
			c-0.9,0-1.7,0-2.3-0.1c-0.7,0-1.3-0.1-1.9-0.1c-0.6,0-1.3,0-2,0.1c-0.6,0.1-1.3,0.1-2.1,0.1C198.4,178.5,198.3,178.5,198.1,178.4z
			"/>
	</g>
	<g>
		
			<radialGradient id="SVGID_9_" cx="162.9707" cy="32.9648" r="9.6611" gradientTransform="matrix(1 0 0 -1 0 236)" gradientUnits="userSpaceOnUse">
			<stop  offset="0" style="stop-color:#FFFBCC"/>
			<stop  offset="0.1146" style="stop-color:#FBF2BB"/>
			<stop  offset="0.3413" style="stop-color:#F0D98E"/>
			<stop  offset="0.3708" style="stop-color:#EED688"/>
			<stop  offset="0.6854" style="stop-color:#EBBB10"/>
			<stop  offset="1" style="stop-color:#C3922E"/>
		</radialGradient>
		<path class="st12" d="M157.1,215c-0.3-0.1-0.4-0.2-0.4-0.3c0-0.2,0.2-0.3,0.5-0.5s0.6-0.2,0.8-0.2c1.8,0,3.4-0.3,4.6-1
			s2.2-1.5,2.9-2.6c0.6-1,1-2.1,1-3.2c0-1.4-0.7-2.6-2-3.6s-3.6-1.9-6.8-2.7c-0.3-0.3-0.5-0.5-0.7-0.8c-0.1-0.3-0.2-0.6-0.2-0.9
			c0-0.7,0.4-2.1,1.2-4.2l0.5-1.6c0.2-0.7,0.7-1.1,1.5-1.3c2.3-0.6,4.8-1,7.5-1.3h0.1c0.2,0,0.3,0.1,0.4,0.2c0.1,0.1,0.1,0.3,0,0.4
			l-0.6,1.2c-0.3,0.7-0.8,1.1-1.3,1.2l-2.8,0.3c-1.6,0.1-2.7,0.2-3.5,0.4c-0.2,0-0.6,0.4-1,1.2s-0.6,1.3-0.6,1.7v0.1
			c0,0.3,0.2,0.4,0.5,0.5c3,0.9,5.2,1.7,6.6,2.4c1.4,0.7,2.4,1.6,3.1,2.5s1,2.2,1,3.6c0,1.3-0.4,2.5-1.2,3.7s-1.9,2.1-3.3,2.9
			c-2.1,1.2-4.4,1.7-6.9,1.7C157.6,215.1,157.3,215.1,157.1,215z"/>
	</g>
	<g>
		
			<radialGradient id="SVGID_10_" cx="112.3235" cy="22.2" r="9.9689" gradientTransform="matrix(1 0 0 -1 0 236)" gradientUnits="userSpaceOnUse">
			<stop  offset="0" style="stop-color:#FFFBCC"/>
			<stop  offset="0.1146" style="stop-color:#FBF2BB"/>
			<stop  offset="0.3413" style="stop-color:#F0D98E"/>
			<stop  offset="0.3708" style="stop-color:#EED688"/>
			<stop  offset="0.6854" style="stop-color:#EBBB10"/>
			<stop  offset="1" style="stop-color:#C3922E"/>
		</radialGradient>
		<path class="st13" d="M108.7,224.9c-1.1-0.6-2.1-1.4-2.8-2.6c-0.7-1.1-1.1-2.5-1.1-4.2c0-2.4,0.5-4.4,1.4-6.1
			c0.9-1.7,1.9-3.1,3-4.2c1.2-1.2,2.6-2.4,4.3-3.5c1.7-1.1,3.5-1.9,5.5-2.5c0,0,0.1,0,0.2,0s0.3,0,0.4,0.1s0.1,0.1,0.1,0.2
			c-0.1,0.3-0.5,0.5-0.9,0.7c-1.7,0.7-3.1,1.5-4.2,2.4c-1.2,0.9-2.2,2-3.1,3.3c-0.8,1.2-1.6,2.7-2.3,4.4c-0.7,1.7-1.1,3.4-1.1,5.1
			c0,1.3,0.3,2.4,0.8,3.4s1.2,1.7,2,2.2s1.6,0.7,2.5,0.7c1,0,1.9-0.4,2.6-1.1c0.7-0.8,1.1-1.8,1.1-3.2c0-1.1-0.3-2.1-0.9-3
			s-1.4-1.3-2.4-1.3c-0.7,0-1.2,0-1.6,0.1s-0.9,0.2-1.3,0.4c-0.1,0-0.2,0.1-0.3,0.1c-0.1,0-0.1,0-0.1-0.1s0-0.2,0.1-0.3
			c0.3-0.3,0.6-0.6,1-0.9c0.3-0.3,0.9-0.5,1.6-0.8s1.4-0.4,2-0.4c0.8,0,1.6,0.2,2.3,0.6c0.7,0.4,1.3,0.9,1.8,1.6
			c0.4,0.7,0.7,1.4,0.7,2.3c0,1.5-0.4,2.8-1.1,3.9c-0.7,1.1-1.7,2-2.8,2.7s-2.3,0.9-3.5,0.9C111,225.8,109.8,225.5,108.7,224.9z"/>
	</g>
	<g>
		
			<radialGradient id="SVGID_11_" cx="65.5732" cy="32.0825" r="10.2537" gradientTransform="matrix(1 0 0 -1 0 236)" gradientUnits="userSpaceOnUse">
			<stop  offset="0" style="stop-color:#FFFBCC"/>
			<stop  offset="0.1146" style="stop-color:#FBF2BB"/>
			<stop  offset="0.3413" style="stop-color:#F0D98E"/>
			<stop  offset="0.3708" style="stop-color:#EED688"/>
			<stop  offset="0.6854" style="stop-color:#EBBB10"/>
			<stop  offset="1" style="stop-color:#C3922E"/>
		</radialGradient>
		<path class="st14" d="M59.9,214.9c0-0.1,0.3-0.6,0.8-1.5L71,195c0-0.1,0.1-0.2,0.1-0.2c0-0.1-0.1-0.2-0.4-0.2h-9.3
			c-0.6,0-1.2,0.1-1.6,0.4c-0.4,0.2-0.8,0.7-1.2,1.3c-0.3,0.6-0.6,0.9-0.9,0.9c-0.2,0-0.3-0.2-0.3-0.5c0-0.1,0-0.3,0.1-0.5
			c0-0.2,0.1-0.3,0.1-0.3c0.2-0.8,0.4-2,0.6-3.6c0-0.3,0.1-0.4,0.4-0.4c0,0,0.4,0.1,1,0.2c0.6,0.1,1.3,0.2,2.1,0.2h3.6
			c1.8,0,3.6,0,5.3-0.1c1.7,0,2.7-0.1,3.1-0.1c0,0,0.1,0.1,0.1,0.2c0,0.1,0.1,0.2,0.1,0.3c0,0.3-0.2,0.7-0.6,1.4
			c-0.4,0.6-0.7,1-0.8,1.2l-11,19.8c-0.4,0.7-0.6,1-0.7,1C60.2,215.9,59.9,215.6,59.9,214.9z"/>
	</g>
	<g>
		
			<radialGradient id="SVGID_12_" cx="26.7183" cy="68.4565" r="9.586" gradientTransform="matrix(1 0 0 -1 0 236)" gradientUnits="userSpaceOnUse">
			<stop  offset="0" style="stop-color:#FFFBCC"/>
			<stop  offset="0.1146" style="stop-color:#FBF2BB"/>
			<stop  offset="0.3413" style="stop-color:#F0D98E"/>
			<stop  offset="0.3708" style="stop-color:#EED688"/>
			<stop  offset="0.6854" style="stop-color:#EBBB10"/>
			<stop  offset="1" style="stop-color:#C3922E"/>
		</radialGradient>
		<path class="st15" d="M23.2,178.5c-1-0.5-1.8-1.2-2.4-2s-0.9-1.8-0.9-2.9c0-1,0.3-1.8,0.8-2.6s1.1-1.4,1.7-1.8
			c0.7-0.5,1.4-0.9,2.4-1.5c0.1-0.1,0.2-0.1,0.2-0.2s-0.1-0.1-0.3-0.3l-0.6-0.5c-0.9-0.7-1.5-1.3-2-1.8s-0.8-1-1.2-1.7
			s-0.5-1.4-0.5-2.3c0-0.9,0.3-1.8,1-2.6c0.6-0.8,1.5-1.4,2.5-1.9s2.1-0.7,3.1-0.7s1.9,0.2,2.8,0.6c0.9,0.4,1.6,1,2.2,1.7
			c0.5,0.7,0.8,1.6,0.8,2.5c0,0.8-0.2,1.4-0.5,1.9c-0.4,0.5-0.8,1-1.4,1.5c-0.7,0.6-1.3,1.1-1.9,1.5c-0.3,0.2-0.5,0.4-0.5,0.5
			s0.1,0.2,0.3,0.3c1.6,1.1,2.8,2.1,3.5,3c0.8,0.9,1.1,2,1.1,3.3c0,1.2-0.3,2.3-1,3.3s-1.6,1.8-2.7,2.3c-1.1,0.6-2.3,0.8-3.4,0.8
			C25.2,179.3,24.2,179,23.2,178.5z M29.5,177c0.7-0.8,1.1-1.7,1.1-2.8c0-1.8-1.4-3.7-4.3-5.7c-0.3-0.2-0.6-0.4-0.7-0.4
			s-0.2,0.1-0.4,0.2c-0.8,0.7-1.5,1.3-1.8,2c-0.4,0.7-0.5,1.5-0.5,2.6c0,1.4,0.4,2.6,1.1,3.6s1.7,1.6,2.9,1.6
			C27.9,178.2,28.8,177.8,29.5,177z M29.6,163.5c0.3-0.8,0.4-1.8,0.4-3.1c0-1.1-0.3-2-0.8-2.7s-1.3-1.1-2.3-1.1
			c-0.6,0-1.1,0.2-1.7,0.5s-1,0.7-1.4,1.3c-0.4,0.5-0.5,1.1-0.5,1.8s0.1,1.3,0.3,1.8c0.2,0.5,0.5,0.9,0.8,1.2
			c0.4,0.3,0.9,0.8,1.6,1.3c0.9,0.7,1.4,1,1.5,1.1c0.2,0.2,0.4,0.2,0.5,0.1C28.8,165.1,29.3,164.3,29.6,163.5z"/>
	</g>
	<g>
		
			<radialGradient id="SVGID_13_" cx="13.7339" cy="118.1025" r="10.0013" gradientTransform="matrix(1 0 0 -1 0 236)" gradientUnits="userSpaceOnUse">
			<stop  offset="0" style="stop-color:#FFFBCC"/>
			<stop  offset="0.1146" style="stop-color:#FBF2BB"/>
			<stop  offset="0.3413" style="stop-color:#F0D98E"/>
			<stop  offset="0.3708" style="stop-color:#EED688"/>
			<stop  offset="0.6854" style="stop-color:#EBBB10"/>
			<stop  offset="1" style="stop-color:#C3922E"/>
		</radialGradient>
		<path class="st16" d="M6.3,129.6c0-0.1,0-0.2,0.1-0.3s0.2-0.1,0.4-0.1c1.1,0,2.4-0.5,4-1.5s2.9-2.3,4.1-3.8c1.2-1.5,2-3,2.5-4.4
			c0.5-1.5,0.7-3.1,0.7-4.8c0-1.2-0.2-2.3-0.7-3.5s-1.1-2.1-1.9-2.8c-0.8-0.7-1.6-1.1-2.5-1.1c-0.8,0-1.4,0.2-1.9,0.6
			s-0.9,0.9-1.2,1.5s-0.4,1.2-0.4,1.9c0,0.7,0.2,1.4,0.5,2.1c0.4,0.7,0.8,1.3,1.4,1.7c0.6,0.4,1.2,0.7,1.8,0.7
			c0.5,0,0.9-0.1,1.3-0.2s0.6-0.2,0.9-0.4c0.3-0.2,0.5-0.3,0.7-0.4l0,0c0.1,0,0.2,0,0.2,0.1s0,0.2,0,0.3c-0.2,0.4-0.6,0.9-1.2,1.3
			c-0.4,0.3-0.9,0.5-1.5,0.8s-1.3,0.4-1.9,0.4c-0.8,0-1.7-0.2-2.4-0.6c-0.8-0.4-1.4-1-1.9-1.7s-0.7-1.5-0.7-2.3c0-1.1,0.3-2.2,1-3.4
			c0.7-1.1,1.6-2.1,2.7-2.8c1.1-0.7,2.4-1.1,3.8-1.1c1.1,0,2.3,0.4,3.3,1.2c1.1,0.8,2,1.9,2.6,3.1c0.7,1.3,1,2.6,1,4
			c0,2.2-0.4,4.1-1.3,5.9c-0.9,1.7-2.2,3.6-4,5.5c-1.2,1.4-2.7,2.4-4.5,3.2c-1.8,0.8-3.3,1.1-4.7,1.1C6.4,129.9,6.3,129.8,6.3,129.6
			z"/>
	</g>
	<g>
		
			<radialGradient id="SVGID_14_" cx="23.9991" cy="168.2694" r="9.2452" gradientTransform="matrix(1 0 0 -1 0 236)" gradientUnits="userSpaceOnUse">
			<stop  offset="0" style="stop-color:#FFFBCC"/>
			<stop  offset="0.1146" style="stop-color:#FBF2BB"/>
			<stop  offset="0.3413" style="stop-color:#F0D98E"/>
			<stop  offset="0.3708" style="stop-color:#EED688"/>
			<stop  offset="0.6854" style="stop-color:#EBBB10"/>
			<stop  offset="1" style="stop-color:#C3922E"/>
		</radialGradient>
		<path class="st17" d="M18.2,79.3c-0.1-0.1-0.1-0.2-0.1-0.3c0-0.1,0.1-0.2,0.2-0.3c0.1-0.1,0.2-0.2,0.4-0.2
			c1.1-0.3,1.9-0.5,2.4-0.7c0.5-0.2,0.9-0.5,1.2-0.9c0.3-0.4,0.4-0.9,0.4-1.6V61.4c0-0.6-0.3-1.1-0.8-1.3c-0.5-0.2-1.3-0.4-2.3-0.5
			c-0.3,0-0.5-0.1-0.7-0.2c-0.2-0.1-0.3-0.2-0.3-0.4c0-0.2,0.1-0.3,0.3-0.4c0.2-0.1,0.4-0.2,0.7-0.2c1.3-0.2,2.4-0.4,3.2-0.7
			c0.8-0.3,1.5-0.8,2.3-1.5c0,0,0.1,0,0.2,0c0.1,0,0.2,0,0.3,0.1s0.1,0.1,0.1,0.2c-0.1,0.7-0.1,1.5-0.1,2.6v16.7
			c0,0.6,0.1,1.1,0.3,1.4s0.6,0.5,1,0.7c0.5,0.2,1.3,0.4,2.5,0.7c0.2,0,0.3,0.1,0.4,0.2c0.1,0.1,0.2,0.2,0.2,0.3
			c0,0.1,0,0.2-0.1,0.3c-0.1,0.1-0.2,0.1-0.4,0.1c-1,0-1.9,0-2.8-0.1c-1.1,0-2-0.1-2.6-0.1c-0.9,0-1.9,0-2.7,0.1
			c-1.2,0-2.1,0.1-2.7,0.1C18.4,79.4,18.3,79.3,18.2,79.3z"/>
		
			<radialGradient id="SVGID_15_" cx="41.292" cy="167.95" r="9.8219" gradientTransform="matrix(1 0 0 -1 0 236)" gradientUnits="userSpaceOnUse">
			<stop  offset="0" style="stop-color:#FFFBCC"/>
			<stop  offset="0.1146" style="stop-color:#FBF2BB"/>
			<stop  offset="0.3413" style="stop-color:#F0D98E"/>
			<stop  offset="0.3708" style="stop-color:#EED688"/>
			<stop  offset="0.6854" style="stop-color:#EBBB10"/>
			<stop  offset="1" style="stop-color:#C3922E"/>
		</radialGradient>
		<path class="st18" d="M37.1,78.1c-1.1-1.1-1.9-2.6-2.5-4.3c-0.5-1.8-0.8-3.6-0.8-5.5c0-2,0.3-3.9,0.8-5.7c0.5-1.8,1.4-3.3,2.5-4.5
			c1.2-1.2,2.6-1.8,4.3-1.8c1.6,0,2.9,0.6,4,1.7s1.9,2.6,2.5,4.3c0.6,1.7,0.8,3.6,0.8,5.4c0,1.9-0.3,3.8-0.8,5.7
			c-0.5,1.8-1.4,3.4-2.5,4.6c-1.2,1.2-2.6,1.8-4.3,1.8C39.6,79.8,38.2,79.2,37.1,78.1z M44.8,75.9c0.7-2,1-4.5,1-7.4
			c0-1.9-0.2-3.7-0.6-5.4c-0.4-1.7-1-3.1-1.7-4.1c-0.8-1.1-1.7-1.6-2.7-1.6c-1.4,0-2.4,1-3,2.9s-0.9,4.4-0.9,7.4
			c0,1.9,0.2,3.7,0.6,5.4c0.4,1.7,0.9,3.1,1.7,4.2c0.7,1.1,1.6,1.6,2.7,1.6C43.1,78.8,44.1,77.8,44.8,75.9z"/>
	</g>
	<g>
		
			<radialGradient id="SVGID_16_" cx="57.6717" cy="202.918" r="9.2452" gradientTransform="matrix(1 0 0 -1 0 236)" gradientUnits="userSpaceOnUse">
			<stop  offset="0" style="stop-color:#FFFBCC"/>
			<stop  offset="0.1146" style="stop-color:#FBF2BB"/>
			<stop  offset="0.3413" style="stop-color:#F0D98E"/>
			<stop  offset="0.3708" style="stop-color:#EED688"/>
			<stop  offset="0.6854" style="stop-color:#EBBB10"/>
			<stop  offset="1" style="stop-color:#C3922E"/>
		</radialGradient>
		<path class="st19" d="M51.9,44.6c-0.1-0.1-0.1-0.2-0.1-0.3s0.1-0.2,0.2-0.3c0.1-0.1,0.2-0.2,0.4-0.2c1.1-0.3,1.9-0.5,2.4-0.7
			s0.9-0.5,1.2-0.9s0.4-0.9,0.4-1.6V26.7c0-0.6-0.3-1.1-0.8-1.3c-0.5-0.2-1.3-0.4-2.3-0.5c-0.3,0-0.5-0.1-0.7-0.2s-0.3-0.2-0.3-0.4
			c0-0.2,0.1-0.3,0.3-0.4s0.4-0.2,0.7-0.2c1.3-0.2,2.4-0.4,3.2-0.7c0.8-0.3,1.5-0.8,2.3-1.5c0,0,0.1,0,0.2,0c0.1,0,0.2,0,0.3,0.1
			s0.1,0.1,0.1,0.2c-0.1,0.7-0.1,1.5-0.1,2.6v16.7c0,0.6,0.1,1.1,0.3,1.4c0.2,0.3,0.6,0.5,1,0.7c0.5,0.2,1.3,0.4,2.5,0.7
			c0.2,0,0.3,0.1,0.4,0.2c0.1,0.1,0.2,0.2,0.2,0.3s0,0.2-0.1,0.3s-0.2,0.1-0.4,0.1c-1,0-1.9,0-2.8-0.1c-1.1,0-2-0.1-2.6-0.1
			c-0.9,0-1.9,0-2.7,0.1c-1.2,0-2.1,0.1-2.7,0.1C52.1,44.7,52,44.7,51.9,44.6z"/>
		
			<radialGradient id="SVGID_17_" cx="75.1468" cy="202.918" r="9.2408" gradientTransform="matrix(1 0 0 -1 0 236)" gradientUnits="userSpaceOnUse">
			<stop  offset="0" style="stop-color:#FFFBCC"/>
			<stop  offset="0.1146" style="stop-color:#FBF2BB"/>
			<stop  offset="0.3413" style="stop-color:#F0D98E"/>
			<stop  offset="0.3708" style="stop-color:#EED688"/>
			<stop  offset="0.6854" style="stop-color:#EBBB10"/>
			<stop  offset="1" style="stop-color:#C3922E"/>
		</radialGradient>
		<path class="st20" d="M69.4,44.6c-0.1-0.1-0.1-0.2-0.1-0.3s0.1-0.2,0.2-0.3s0.2-0.2,0.4-0.2c1.1-0.3,1.9-0.5,2.4-0.7
			s0.9-0.5,1.2-0.9c0.3-0.4,0.4-0.9,0.4-1.6V26.7c0-0.6-0.3-1.1-0.8-1.3c-0.5-0.2-1.3-0.4-2.3-0.5c-0.3,0-0.5-0.1-0.7-0.2
			s-0.3-0.2-0.3-0.4c0-0.2,0.1-0.3,0.3-0.4c0.2-0.1,0.4-0.2,0.7-0.2c1.3-0.2,2.4-0.4,3.2-0.7c0.8-0.3,1.5-0.8,2.3-1.5
			c0,0,0.1,0,0.2,0s0.2,0,0.3,0.1c0.1,0.1,0.1,0.1,0.1,0.2c-0.1,0.7-0.1,1.5-0.1,2.6v16.7c0,0.6,0.1,1.1,0.3,1.4
			c0.2,0.3,0.6,0.5,1,0.7c0.5,0.2,1.3,0.4,2.5,0.7c0.2,0,0.3,0.1,0.4,0.2c0.1,0.1,0.2,0.2,0.2,0.3s0,0.2-0.1,0.3s-0.2,0.1-0.4,0.1
			c-1,0-1.9,0-2.8-0.1c-1.1,0-2-0.1-2.6-0.1c-0.9,0-1.9,0-2.7,0.1c-1.2,0-2.1,0.1-2.7,0.1C69.6,44.7,69.5,44.7,69.4,44.6z"/>
	</g>
</g>
</svg>
