<?xml version="1.0" encoding="utf-8"?>
<!-- Generator: Adobe Illustrator 21.1.0, SVG Export Plug-In . SVG Version: 6.00 Build 0)  -->
<svg version="1.1" id="Layer_1" xmlns="http://www.w3.org/2000/svg" xmlns:xlink="http://www.w3.org/1999/xlink" x="0px" y="0px"
	 viewBox="0 0 260 260" style="enable-background:new 0 0 260 260;" xml:space="preserve">
<style type="text/css">
	.st0{display:none;}
	.st1{clip-path:url(#SVGID_2_);fill:#D74127;}
	.st2{clip-path:url(#SVGID_2_);fill:#0CBFD5;}
	.st3{clip-path:url(#SVGID_2_);fill:#EBAA21;}
	.st4{clip-path:url(#SVGID_2_);fill:#182752;}
</style>
<g id="Layer_2" class="st0">
</g>
<g id="Layer_3">
</g>
<g>
	<defs>
		<path id="SVGID_1_" d="M185,21.3c-22.6,0-42.6,11-55,28c-12.4-17-32.4-28-55-28c-37.6,0-68,30.4-68,68c0,57.1,123,149.3,123,149.3
			s123-92.2,123-149.3C253,51.8,222.6,21.3,185,21.3z"/>
	</defs>
	<clipPath id="SVGID_2_">
		<use xlink:href="#SVGID_1_"  style="overflow:visible;"/>
	</clipPath>
	<polygon class="st1" points="-91.8,228.3 -108.4,209.9 183.6,-115.4 200.2,-97 	"/>
	<polygon class="st2" points="-75.5,246.5 -92,228.1 200,-97.2 216.5,-78.8 	"/>
	<polygon class="st3" points="-108.4,209.9 -124.9,191.5 167.1,-133.8 183.6,-115.4 	"/>
	<polygon class="st4" points="-59,264.9 -75.5,246.5 216.5,-78.8 233,-60.4 	"/>
	<polygon class="st1" points="-26.3,301.3 -42.9,282.9 249.2,-42.4 265.7,-24 	"/>
	<polygon class="st2" points="-9.8,319.9 -26.4,301.5 265.6,-23.8 282.2,-5.4 	"/>
	<polygon class="st3" points="-42.7,283.1 -59.2,264.7 232.8,-60.6 249.3,-42.2 	"/>
	<polygon class="st4" points="6.8,338.2 -9.7,319.8 282.3,-5.5 298.8,12.9 	"/>
	<polygon class="st1" points="39.9,375.3 23.4,356.9 315.4,31.6 331.9,50 	"/>
	<polygon class="st2" points="56.3,393.5 39.7,375.1 331.7,49.8 348.3,68.2 	"/>
	<polygon class="st3" points="23.4,356.9 6.9,338.5 298.9,13.2 315.4,31.6 	"/>
	<polygon class="st4" points="72.7,411.9 56.2,393.5 348.2,68.2 364.8,86.6 	"/>
	<polygon class="st1" points="105.4,448.3 88.9,429.9 380.9,104.6 397.4,123 	"/>
	<polygon class="st2" points="121.9,466.9 105.4,448.5 397.4,123.1 413.9,141.6 	"/>
	<polygon class="st3" points="89.1,430.1 72.6,411.7 364.6,86.4 381.1,104.8 	"/>
	<polygon class="st4" points="138.6,485.2 122,466.8 414.1,141.5 430.6,159.9 	"/>
</g>
</svg>
