<?xml version="1.0" encoding="utf-8"?>
<!-- Generator: Adobe Illustrator 21.1.0, SVG Export Plug-In . SVG Version: 6.00 Build 0)  -->
<svg version="1.1" id="Layer_1" xmlns="http://www.w3.org/2000/svg" xmlns:xlink="http://www.w3.org/1999/xlink" x="0px" y="0px"
	 viewBox="0 0 94.3 60" style="enable-background:new 0 0 94.3 60;" xml:space="preserve">
<style type="text/css">
	.st0{fill:#FFFFFF;}
</style>
<polygon class="st0" points="13.2,30 43.2,0 30,0 0,30 "/>
<polygon class="st0" points="53.8,10.6 73.1,30 60,30 40.6,10.6 "/>
<polygon class="st0" points="81.2,30 51.2,0 64.3,0 94.3,30 "/>
<polygon class="st0" points="59,30.9 30,60 43.1,60 72.2,30.9 "/>
<polygon class="st0" points="80.3,30.9 51.2,60 64.3,60 93.4,30.9 "/>
<polygon class="st0" points="35.9,52.8 14.1,30.9 0.9,30.9 29.3,59.4 "/>
<polygon class="st0" points="46.5,42.1 35.3,30.9 22.1,30.9 39.9,48.7 "/>
<polygon class="st0" points="54.7,9.7 57.1,7.3 50.5,0.6 41.5,9.7 "/>
<polygon class="st0" points="39.9,11.3 21.2,30 34.4,30 46.5,17.9 "/>
</svg>
