<?xml version="1.0" encoding="utf-8"?>
<!-- Generator: Adobe Illustrator 21.1.0, SVG Export Plug-In . SVG Version: 6.00 Build 0)  -->
<svg version="1.1" id="Watch_Hand" xmlns="http://www.w3.org/2000/svg" xmlns:xlink="http://www.w3.org/1999/xlink" x="0px" y="0px"
	 viewBox="0 0 123.5 233.8" style="enable-background:new 0 0 123.5 233.8;" xml:space="preserve">
<style type="text/css">
	.st0{fill:none;stroke:url(#SVGID_1_);stroke-width:7;stroke-miterlimit:10;}
	.st1{fill:none;stroke:url(#SVGID_2_);stroke-width:7;stroke-miterlimit:10;}
	.st2{fill:none;stroke:url(#SVGID_3_);stroke-width:7;stroke-miterlimit:10;}
	.st3{fill:none;stroke:url(#SVGID_4_);stroke-width:7;stroke-miterlimit:10;}
	.st4{fill:none;stroke:url(#SVGID_5_);stroke-width:7;stroke-miterlimit:10;}
	.st5{fill:none;stroke:url(#SVGID_6_);stroke-width:7;stroke-miterlimit:10;}
	.st6{fill:none;stroke:url(#SVGID_7_);stroke-width:7;stroke-miterlimit:10;}
	.st7{fill:none;stroke:url(#SVGID_8_);stroke-width:7;stroke-miterlimit:10;}
	.st8{fill:url(#SVGID_9_);}
	.st9{fill:url(#SVGID_10_);}
	.st10{fill:url(#SVGID_11_);}
	.st11{fill:none;stroke:url(#SVGID_12_);stroke-width:7;stroke-miterlimit:10;}
	.st12{fill:none;stroke:url(#SVGID_13_);stroke-width:7;stroke-miterlimit:10;}
	.st13{fill:url(#SVGID_14_);}
</style>
<g id="Layer_5">
	
		<radialGradient id="SVGID_1_" cx="27.5632" cy="66.1283" r="21.9297" gradientTransform="matrix(0.8906 0.4548 -0.4548 0.8906 34.4966 13.6573)" gradientUnits="userSpaceOnUse">
		<stop  offset="0" style="stop-color:#FFFBCC"/>
		<stop  offset="0.1146" style="stop-color:#FBF2BB"/>
		<stop  offset="0.3413" style="stop-color:#F0D98E"/>
		<stop  offset="0.3708" style="stop-color:#EED688"/>
		<stop  offset="0.6854" style="stop-color:#EBBB10"/>
		<stop  offset="1" style="stop-color:#C3922E"/>
	</radialGradient>
	<path class="st0" d="M2.9,87c2,3,5.1,6.6,9.3,6.9c8.5,0.7,12.5-12.6,24.3-16c4.5-1.3,11.3-1.5,21.1,3.8"/>
	
		<radialGradient id="SVGID_2_" cx="31.5252" cy="74.6356" r="21.9297" gradientTransform="matrix(0.9732 0.23 -0.23 0.9732 17.0918 15.9034)" gradientUnits="userSpaceOnUse">
		<stop  offset="0" style="stop-color:#FFFBCC"/>
		<stop  offset="0.1146" style="stop-color:#FBF2BB"/>
		<stop  offset="0.3413" style="stop-color:#F0D98E"/>
		<stop  offset="0.3708" style="stop-color:#EED688"/>
		<stop  offset="0.6854" style="stop-color:#EBBB10"/>
		<stop  offset="1" style="stop-color:#C3922E"/>
	</radialGradient>
	<path class="st1" d="M5.7,103.8c2.7,2.4,6.6,5.1,10.7,4.5c8.5-1.3,9.1-15.2,19.8-21.3c4.1-2.4,10.7-4.1,21.4-1.3"/>
	
		<radialGradient id="SVGID_3_" cx="70.0517" cy="5.5635" r="21.9297" gradientTransform="matrix(0.9998 2.194194e-02 -2.194194e-02 0.9998 -31.6707 97.8796)" gradientUnits="userSpaceOnUse">
		<stop  offset="0" style="stop-color:#FFFBCC"/>
		<stop  offset="0.1146" style="stop-color:#FBF2BB"/>
		<stop  offset="0.3413" style="stop-color:#F0D98E"/>
		<stop  offset="0.3708" style="stop-color:#EED688"/>
		<stop  offset="0.6854" style="stop-color:#EBBB10"/>
		<stop  offset="1" style="stop-color:#C3922E"/>
	</radialGradient>
	<path class="st2" d="M15.6,118c3.1,1.8,7.5,3.7,11.4,2.2c8-3,5.8-16.8,14.9-25c3.5-3.2,9.6-6.3,20.7-5.8"/>
	
		<radialGradient id="SVGID_4_" cx="75.2421" cy="16.361" r="21.9297" gradientTransform="matrix(0.9789 -0.2043 0.2043 0.9789 -31.5451 115.4309)" gradientUnits="userSpaceOnUse">
		<stop  offset="0" style="stop-color:#FFFBCC"/>
		<stop  offset="0.1146" style="stop-color:#FBF2BB"/>
		<stop  offset="0.3413" style="stop-color:#F0D98E"/>
		<stop  offset="0.3708" style="stop-color:#EED688"/>
		<stop  offset="0.6854" style="stop-color:#EBBB10"/>
		<stop  offset="1" style="stop-color:#C3922E"/>
	</radialGradient>
	<path class="st3" d="M26.3,133.9c3.4,1.1,8.1,1.9,11.6-0.5c7.1-4.8,1.8-17.7,8.9-27.7c2.7-3.9,7.9-8.3,18.8-10.3"/>
	
		<radialGradient id="SVGID_5_" cx="18.9656" cy="69.995" r="21.9297" gradientTransform="matrix(-0.8906 0.4548 0.4548 0.8906 79.6203 13.6573)" gradientUnits="userSpaceOnUse">
		<stop  offset="0" style="stop-color:#FFFBCC"/>
		<stop  offset="0.1146" style="stop-color:#FBF2BB"/>
		<stop  offset="0.3413" style="stop-color:#F0D98E"/>
		<stop  offset="0.3708" style="stop-color:#EED688"/>
		<stop  offset="0.6854" style="stop-color:#EBBB10"/>
		<stop  offset="1" style="stop-color:#C3922E"/>
	</radialGradient>
	<path class="st4" d="M120.6,86.5c-2,3-5.1,6.6-9.3,6.9c-8.5,0.7-12.5-12.6-24.3-16c-4.5-1.3-11.3-1.5-21.1,3.8"/>
	
		<radialGradient id="SVGID_6_" cx="22.2549" cy="76.3478" r="21.9297" gradientTransform="matrix(-0.9732 0.23 0.23 0.9732 97.025 15.9034)" gradientUnits="userSpaceOnUse">
		<stop  offset="0" style="stop-color:#FFFBCC"/>
		<stop  offset="0.1146" style="stop-color:#FBF2BB"/>
		<stop  offset="0.3413" style="stop-color:#F0D98E"/>
		<stop  offset="0.3708" style="stop-color:#EED688"/>
		<stop  offset="0.6854" style="stop-color:#EBBB10"/>
		<stop  offset="1" style="stop-color:#C3922E"/>
	</radialGradient>
	<path class="st5" d="M117.8,103.4c-2.7,2.4-6.6,5.1-10.7,4.5c-8.5-1.3-9.1-15.2-19.8-21.3c-4.1-2.4-10.7-4.1-21.4-1.3"/>
	
		<radialGradient id="SVGID_7_" cx="60.6282" cy="5.304" r="21.9297" gradientTransform="matrix(-0.9998 2.194194e-02 2.194194e-02 0.9998 145.7875 97.8796)" gradientUnits="userSpaceOnUse">
		<stop  offset="0" style="stop-color:#FFFBCC"/>
		<stop  offset="0.1146" style="stop-color:#FBF2BB"/>
		<stop  offset="0.3413" style="stop-color:#F0D98E"/>
		<stop  offset="0.3708" style="stop-color:#EED688"/>
		<stop  offset="0.6854" style="stop-color:#EBBB10"/>
		<stop  offset="1" style="stop-color:#C3922E"/>
	</radialGradient>
	<path class="st6" d="M107.9,117.6c-3.1,1.8-7.5,3.7-11.4,2.2c-8-3-5.8-16.8-14.9-25c-3.5-3.2-9.6-6.3-20.7-5.8"/>
	
		<radialGradient id="SVGID_8_" cx="66.1203" cy="13.9814" r="21.9297" gradientTransform="matrix(-0.9789 -0.2043 -0.2043 0.9789 145.6619 115.4309)" gradientUnits="userSpaceOnUse">
		<stop  offset="0" style="stop-color:#FFFBCC"/>
		<stop  offset="0.1146" style="stop-color:#FBF2BB"/>
		<stop  offset="0.3413" style="stop-color:#F0D98E"/>
		<stop  offset="0.3708" style="stop-color:#EED688"/>
		<stop  offset="0.6854" style="stop-color:#EBBB10"/>
		<stop  offset="1" style="stop-color:#C3922E"/>
	</radialGradient>
	<path class="st7" d="M97.2,133.4c-3.4,1.1-8.1,1.9-11.6-0.5c-7.1-4.8-1.8-17.7-8.9-27.7C74,101.4,68.8,97,57.9,95"/>
</g>
<radialGradient id="SVGID_9_" cx="63.0406" cy="126.3542" r="76.232" gradientUnits="userSpaceOnUse">
	<stop  offset="0" style="stop-color:#FFFBCC"/>
	<stop  offset="0.1146" style="stop-color:#FBF2BB"/>
	<stop  offset="0.3413" style="stop-color:#F0D98E"/>
	<stop  offset="0.3708" style="stop-color:#EED688"/>
	<stop  offset="0.6854" style="stop-color:#EBBB10"/>
	<stop  offset="1" style="stop-color:#C3922E"/>
</radialGradient>
<rect x="54.2" y="18.9" class="st8" width="17.7" height="214.9"/>
<radialGradient id="SVGID_10_" cx="71.0499" cy="9.5184" r="10.3425" gradientTransform="matrix(1.901 0 0 2.4589 -73.288 0)" gradientUnits="userSpaceOnUse">
	<stop  offset="0" style="stop-color:#FFFBCC"/>
	<stop  offset="0.1146" style="stop-color:#FBF2BB"/>
	<stop  offset="0.3413" style="stop-color:#F0D98E"/>
	<stop  offset="0.3708" style="stop-color:#EED688"/>
	<stop  offset="0.6854" style="stop-color:#EBBB10"/>
	<stop  offset="1" style="stop-color:#C3922E"/>
</radialGradient>
<path class="st9" d="M59.9,1.2L40.8,44c-0.6,1.3,0.4,2.8,1.8,2.8h38.2c1.5,0,2.4-1.5,1.8-2.8L63.6,1.2C62.9-0.4,60.6-0.4,59.9,1.2z"
	/>
<radialGradient id="SVGID_11_" cx="60.9532" cy="26.1534" r="6.3621" gradientTransform="matrix(0.7071 0.7071 -0.7071 0.7071 48.7728 -2.1181)" gradientUnits="userSpaceOnUse">
	<stop  offset="0" style="stop-color:#FFFBCC"/>
	<stop  offset="0.1146" style="stop-color:#FBF2BB"/>
	<stop  offset="0.3413" style="stop-color:#F0D98E"/>
	<stop  offset="0.3708" style="stop-color:#EED688"/>
	<stop  offset="0.6854" style="stop-color:#EBBB10"/>
	<stop  offset="1" style="stop-color:#C3922E"/>
</radialGradient>
<path class="st10" d="M68.9,64L68.9,64c-2.5-2.5-2.5-6.5,0-9l0,0c2.5-2.5,6.5-2.5,9,0l0,0c2.5,2.5,2.5,6.5,0,9l0,0
	C75.4,66.5,71.4,66.5,68.9,64z"/>
<radialGradient id="SVGID_12_" cx="58.9677" cy="51.0485" r="18.6536" gradientTransform="matrix(0.7873 0 0 0.7873 3.7469 19.2851)" gradientUnits="userSpaceOnUse">
	<stop  offset="0" style="stop-color:#FFFBCC"/>
	<stop  offset="0.1146" style="stop-color:#FBF2BB"/>
	<stop  offset="0.3413" style="stop-color:#F0D98E"/>
	<stop  offset="0.3708" style="stop-color:#EED688"/>
	<stop  offset="0.6854" style="stop-color:#EBBB10"/>
	<stop  offset="1" style="stop-color:#C3922E"/>
</radialGradient>
<circle class="st11" cx="50.2" cy="59.5" r="11.9"/>
<radialGradient id="SVGID_13_" cx="88.4456" cy="51.0485" r="18.6536" gradientTransform="matrix(0.7189 0.3209 -0.3209 0.7189 26.1743 -5.6064)" gradientUnits="userSpaceOnUse">
	<stop  offset="0" style="stop-color:#FFFBCC"/>
	<stop  offset="0.1146" style="stop-color:#FBF2BB"/>
	<stop  offset="0.3413" style="stop-color:#F0D98E"/>
	<stop  offset="0.3708" style="stop-color:#EED688"/>
	<stop  offset="0.6854" style="stop-color:#EBBB10"/>
	<stop  offset="1" style="stop-color:#C3922E"/>
</radialGradient>
<ellipse transform="matrix(0.4076 -0.9132 0.9132 0.4076 -10.8397 102.2424)" class="st12" cx="73.4" cy="59.5" rx="11.9" ry="11.9"/>
<radialGradient id="SVGID_14_" cx="44.5427" cy="42.5639" r="6.3621" gradientTransform="matrix(0.7071 0.7071 -0.7071 0.7071 48.7728 -2.1181)" gradientUnits="userSpaceOnUse">
	<stop  offset="0" style="stop-color:#FFFBCC"/>
	<stop  offset="0.1146" style="stop-color:#FBF2BB"/>
	<stop  offset="0.3413" style="stop-color:#F0D98E"/>
	<stop  offset="0.3708" style="stop-color:#EED688"/>
	<stop  offset="0.6854" style="stop-color:#EBBB10"/>
	<stop  offset="1" style="stop-color:#C3922E"/>
</radialGradient>
<path class="st13" d="M45.7,64L45.7,64c-2.5-2.5-2.5-6.5,0-9l0,0c2.5-2.5,6.5-2.5,9,0l0,0c2.5,2.5,2.5,6.5,0,9l0,0
	C52.2,66.5,48.2,66.5,45.7,64z"/>
</svg>
