<?xml version="1.0" encoding="utf-8"?>
<!-- Generator: Adobe Illustrator 21.1.0, SVG Export Plug-In . SVG Version: 6.00 Build 0)  -->
<svg version="1.1" xmlns="http://www.w3.org/2000/svg" xmlns:xlink="http://www.w3.org/1999/xlink" x="0px" y="0px"
	 viewBox="0 0 365 425" style="enable-background:new 0 0 365 425;" xml:space="preserve">
<style type="text/css">
	.st0{fill:#D74127;}
	.st1{fill:#EBAA21;}
	.st2{fill:#FFFFFF;}
	.st3{font-family:'Plaster-Regular';}
	.st4{font-size:65.0599px;}
</style>
<g id="Layer_5">
	<g>
		<path class="st0" d="M365,425c-121.9,0.1-243.9,0.2-365.8,0.3c31.4-33.1,68.1-67.8,110.9-102.2c91.1-73.3,180.8-121.9,254.9-154.5
			C365,254.1,365,339.5,365,425z"/>
		<circle class="st1" cx="182.5" cy="291.1" r="113.4"/>
		<g>
			<path class="st0" d="M182.2,429.4h-48.4c11.8-15.6,49.5-69.7,47-147.5c-2.2-68.7-34.5-116-47-132.5c16.1,0,32.3,0,48.4,0
				c12.9,21.2,36.9,67.2,39.2,130.4C224,354,195,408.3,182.2,429.4z"/>
			<path class="st0" d="M182.8,429.4h48.4c-11.8-15.6-49.5-69.7-47-147.5c2.2-68.7,34.5-116,47-132.5c-16.1,0-32.3,0-48.4,0
				c-12.9,21.2-36.9,67.2-39.2,130.4C141,354,170,408.3,182.8,429.4z"/>
		</g>
		<g>
			<polygon class="st2" points="121.6,167.7 175.3,113.9 151.8,113.9 98,167.7 			"/>
			<polygon class="st2" points="194.3,133 229,167.7 205.4,167.7 170.7,133 			"/>
			<polygon class="st2" points="243.4,167.7 189.7,113.9 213.2,113.9 267,167.7 			"/>
			<polygon class="st2" points="203.8,169.3 151.7,221.4 175.2,221.4 227.3,169.3 			"/>
			<polygon class="st2" points="241.8,169.3 189.7,221.4 213.2,221.4 265.3,169.3 			"/>
			<polygon class="st2" points="162.3,208.4 123.2,169.3 99.7,169.3 150.5,220.2 			"/>
			<polygon class="st2" points="181.3,189.4 161.2,169.3 137.7,169.3 169.6,201.2 			"/>
			<polygon class="st2" points="195.9,131.3 200.3,126.9 188.5,115.1 172.4,131.3 			"/>
			<polygon class="st2" points="169.6,134.1 136,167.7 159.6,167.7 181.3,145.9 			"/>
		</g>
		<text transform="matrix(1 0 0 1 9.24 302.0684)" class="st2 st3 st4">pinnacle</text>
	</g>
</g>
<g id="Layer_2">
</g>
</svg>
