<?xml version="1.0" encoding="utf-8"?>
<!-- Generator: Adobe Illustrator 21.1.0, SVG Export Plug-In . SVG Version: 6.00 Build 0)  -->
<svg version="1.1" xmlns="http://www.w3.org/2000/svg" xmlns:xlink="http://www.w3.org/1999/xlink" x="0px" y="0px"
	 viewBox="0 0 365 425" style="enable-background:new 0 0 365 425;" xml:space="preserve">
<style type="text/css">
	.st0{fill:#D74127;}
	.st1{fill:#EBAA21;}
	.st2{fill:#FFFFFF;}
	.st3{font-family:'Plaster-Regular';}
	.st4{font-size:36.6921px;}
	.st5{fill:#ED2991;}
	.st6{fill:#8BD5E6;}
	.st7{font-family:'Arial-Black';}
	.st8{font-size:50.8355px;}
</style>
<g id="Layer_5">
	<g id="PINNACLE">
		<path class="st0" d="M365,426.9c-68.8,0.1-137.5,0.1-206.3,0.2c17.7-18.7,38.4-38.3,62.5-57.7c51.4-41.3,102-68.8,143.8-87.1
			C365,330.5,365,378.7,365,426.9z"/>
		<circle class="st1" cx="262.1" cy="351.4" r="64"/>
		<g>
			<path class="st0" d="M261.9,429.4h-27.3c6.6-8.8,27.9-39.3,26.5-83.2c-1.2-38.7-19.5-65.4-26.5-74.7c9.1,0,18.2,0,27.3,0
				c7.3,12,20.8,37.9,22.1,73.5C285.5,386.9,269.1,417.5,261.9,429.4z"/>
			<path class="st0" d="M262.2,429.4h27.3c-6.6-8.8-27.9-39.3-26.5-83.2c1.2-38.7,19.5-65.4,26.5-74.7c-9.1,0-18.2,0-27.3,0
				c-7.3,12-20.8,37.9-22.1,73.5C238.7,386.9,255,417.5,262.2,429.4z"/>
		</g>
		<g>
			<polygon class="st2" points="227.7,281.8 258,251.5 244.7,251.5 214.4,281.8 			"/>
			<polygon class="st2" points="268.7,262.2 288.3,281.8 275,281.8 255.4,262.2 			"/>
			<polygon class="st2" points="296.4,281.8 266.1,251.5 279.4,251.5 309.7,281.8 			"/>
			<polygon class="st2" points="274.1,282.7 244.7,312.1 258,312.1 287.3,282.7 			"/>
			<polygon class="st2" points="295.5,282.7 266.1,312.1 279.4,312.1 308.8,282.7 			"/>
			<polygon class="st2" points="250.7,304.8 228.7,282.7 215.4,282.7 244,311.4 			"/>
			<polygon class="st2" points="261.4,294 250.1,282.7 236.8,282.7 254.8,300.7 			"/>
			<polygon class="st2" points="269.6,261.3 272.1,258.8 265.5,252.1 256.4,261.3 			"/>
			<polygon class="st2" points="254.8,262.9 235.9,281.8 249.2,281.8 261.4,269.5 			"/>
		</g>
		<text transform="matrix(1 0 0 1 164.3604 357.5967)" class="st2 st3 st4">pinnacle</text>
	</g>
	<g id="VICE_1_">
		<g id="Layer_1_1_">
			<g>
				<polygon class="st5" points="34.1,110.3 99.1,45.2 70.5,45.2 5.4,110.3 				"/>
				<polygon class="st5" points="122.1,68.2 164,110.3 135.5,110.3 93.5,68.2 				"/>
				<polygon class="st5" points="181.5,110.3 116.5,45.2 144.9,45.2 210,110.3 				"/>
				<polygon class="st5" points="133.4,112.2 70.5,175.3 98.9,175.3 162,112.2 				"/>
				<polygon class="st5" points="179.6,112.2 116.5,175.3 144.9,175.3 208,112.2 				"/>
				<polygon class="st5" points="83.3,159.8 36,112.2 7.4,112.2 69,174 				"/>
				<polygon class="st5" points="106.3,136.6 82,112.2 53.4,112.2 92,150.8 				"/>
				<polygon class="st5" points="124.1,66.3 129.3,61.1 115,46.6 95.4,66.3 				"/>
				<polygon class="st5" points="92,69.7 51.4,110.3 80,110.3 106.3,84 				"/>
			</g>
		</g>
		<g id="VICE">
			<g>
				<path class="st6" d="M55.6,83c-0.1,0.6-0.3,1.5-0.9,2.8c-0.5,1.3-1.2,2.8-2,4.6C52,92.2,51,94.2,50,96.3
					c-1.1,2.2-2.3,4.4-3.5,6.6c-1.2,2.3-2.5,4.6-3.9,7c-1.3,2.3-2.7,4.6-4,6.8c-2.2,3.6-4.4,7-6.4,10c-2.1,3-4,5.5-5.7,7.5
					c0.2,0.5,0.3,0.9,0.3,1.3c0,0.7-0.3,1.3-0.9,1.8c-0.6,0.5-1.3,1-2.3,1.3c-0.9,0.3-2,0.6-3.2,0.8c-1.2,0.2-2.4,0.3-3.6,0.3
					c-1,0-1.6-0.2-2.2-0.6c-0.5-0.5-0.7-1-0.7-1.6c0-0.9,0.2-1.5,0.6-2c0.4-0.5,0.9-0.9,1.4-1.1c-0.1-0.6-0.2-1.5-0.5-2.8
					c-0.2-1.2-0.5-2.7-0.7-4.3c-0.2-1.6-0.5-3.3-0.7-5.2c-0.3-1.9-0.5-3.8-0.7-5.7c-0.2-1.9-0.5-3.8-0.7-5.6s-0.3-3.5-0.5-5
					c-0.2-2.1-0.3-4.1-0.3-6c-0.1-1.9-0.1-3.6-0.1-5.3c0-1.6,0.1-3.1,0.1-4.4c0.1-1.4,0.2-2.5,0.3-3.6c0.2-1.1,0.5-2.1,1.1-3.1
					c0.6-1,1.2-1.9,1.9-2.7c0.7-0.8,1.6-1.4,2.4-1.9c0.9-0.5,1.8-0.7,2.6-0.7c1,0,1.6,0.4,2,1.2c0.4,0.8,0.6,1.9,0.6,3.4
					c0,1-0.1,2-0.2,3.2c-0.2,1.2-0.3,2.3-0.5,3.3c-0.2,1.1-0.3,2-0.5,2.7l-0.2,1c-0.1,0.5-0.2,1.1-0.2,1.9c-0.1,0.7-0.1,1.5-0.1,2.4
					c0,1.9,0.1,4,0.2,6.5c0.2,2.4,0.3,4.9,0.6,7.5c0.2,2.6,0.5,5,0.8,7.4c0.3,2.4,0.6,4.5,1,6.4c2-2.7,4.1-5.6,6.2-8.9
					c2.1-3.3,4-6.7,5.8-10.3c1.5-2.9,2.9-6,4.4-9.1s2.9-6.2,4.4-9.1c2.7-5,5.2-7.4,7.4-7.4c1,0,1.7,0.2,2.3,0.5
					c0.6,0.3,0.9,0.9,0.9,1.7C55.7,82.6,55.7,82.8,55.6,83z"/>
				<path class="st6" d="M77,136.4c-1.9-0.2-3.7-0.3-5.2-0.4c-1.5-0.1-2.9-0.1-4.3-0.1c-0.9,0-1.8,0-2.6,0.1
					c-0.9,0.1-1.7,0.1-2.5,0.1c-0.9,0-1.7,0.1-2.6,0.1c-0.9,0.1-1.9,0.1-2.8,0.1c-1,0-1.7-0.3-2.3-0.9c-0.5-0.6-0.8-1.2-0.8-2.1
					c0-0.3,0.1-0.7,0.1-1c0.1-0.3,0.5-0.6,1-1c0.6-0.3,1.4-0.7,2.4-1s2.2-0.6,3.5-0.8c1.3-0.2,2.7-0.4,4.3-0.5
					c1.5-3.3,3.1-6.7,4.8-10.1c1.6-3.4,3.3-6.7,5-9.9c1.7-3.2,3.3-6.3,4.9-9.2c1.6-2.9,3.1-5.6,4.4-8.1c1.4-2.4,2.6-4.5,3.7-6.4
					c1.1-1.8,2-3.2,2.7-4.1c-1.5,0.3-2.9,0.7-4.4,1c-1.4,0.3-3,0.7-4.8,1.1c-0.3,0.1-0.7,0.2-1.1,0.2c-0.9,0-1.5-0.3-2-0.9
					s-0.7-1.3-0.7-2.2c0-0.4,0.3-0.9,1-1.4c0.7-0.5,1.6-1,2.9-1.6c1.2-0.6,2.7-1.1,4.3-1.6c1.6-0.5,3.5-1,5.4-1.4
					c1.9-0.4,4-0.7,6.2-1c2.2-0.2,4.4-0.4,6.5-0.4c2,0,3.7,0.2,4.8,0.6c1.1,0.5,1.8,1.1,1.8,2.2c0,0.5-0.2,1-0.5,1.5
					c-0.3,0.5-0.7,1-1.2,1.4c-0.5,0.4-1.1,0.7-1.8,1c-0.7,0.2-1.4,0.4-2.1,0.4c-0.4,0-0.8,0-1.1-0.1c-0.3-0.1-0.7-0.1-1.1-0.1
					c-1.1,0-2.1,0-3.1,0.1s-1.8,0.1-2.7,0.2c0.1,0.3,0.1,0.5,0.1,0.7c0,0.4-0.1,0.8-0.2,1.2c-0.2,0.3-0.3,0.7-0.5,1
					c-0.9,1.9-2,4.2-3.3,6.9c-1.3,2.7-2.7,5.6-4.1,8.6c-1.5,3-2.9,6.1-4.5,9.2c-1.5,3.1-2.9,6.1-4.3,8.8c-1.4,2.8-2.6,5.2-3.6,7.4
					c-1.1,2.2-1.9,3.8-2.5,4.9c1.6,0.2,3.2,0.3,4.5,0.6c1.4,0.2,2.6,0.6,3.6,0.9c1,0.3,1.8,0.8,2.3,1.3s0.9,1.1,0.9,1.7
					c0,0.5-0.2,0.9-0.5,1.3c-0.3,0.5-0.7,0.8-1.1,1.1c-0.5,0.3-1,0.6-1.6,0.8c-0.6,0.2-1.2,0.3-1.8,0.3c-0.7,0-1.3-0.1-1.9-0.3
					C78.2,136.6,77.6,136.4,77,136.4z"/>
				<path class="st6" d="M150.2,81c0,0.8-0.1,1.8-0.4,2.9c-0.2,1.1-0.6,2.3-1.1,3.5s-1,2.4-1.7,3.6s-1.4,2.3-2.3,3.2
					c-0.9,1-1.8,1.7-2.8,2.3c-1,0.6-2.1,0.9-3.2,0.9c-0.3,0-0.6,0-1-0.1c-0.5-0.1-0.9-0.2-1.3-0.3c-0.5-0.2-0.8-0.4-1.1-0.7
					c-0.3-0.3-0.5-0.7-0.5-1.3c0-0.3,0.1-0.7,0.3-1.2c0.2-0.5,0.5-1,1-1.6c0.5-0.6,1.1-1.3,1.7-2.1c0.6-0.8,1.2-1.6,1.7-2.6
					c0.5-0.9,0.9-1.8,1.2-2.6c0.3-0.9,0.5-1.6,0.5-2.3c0-0.9-0.2-1.5-0.6-2c-0.4-0.5-1.1-0.8-2-0.8c-1.2,0-2.7,0.4-4.3,1.2
					c-1.6,0.9-3.2,1.9-5,3.4c-1.8,1.4-3.5,3.1-5.3,5c-1.8,1.9-3.5,4-5.2,6.2c-1.7,2.2-3.2,4.5-4.8,6.8c-1.5,2.4-2.8,4.7-3.9,7
					c-1.1,2.3-2,4.5-2.6,6.6c-0.6,2.2-1,4.1-1,5.8c0,2.2,0.6,3.9,1.7,5.2c1.1,1.3,3.1,1.9,5.7,1.9c1.2,0,3.1-0.5,5.5-1.4
					c2.4-1,4.5-1.9,6.1-2.9c1.6-1,3.3-2,4.9-3.2c1.6-1.1,3.2-2.3,4.8-3.3c1.5-1.1,2.9-2,4.1-2.9c1.2-0.9,2.3-1.5,3.1-1.8
					c0.2-0.1,0.3-0.2,0.5-0.2c0.5,0,0.7,0.3,0.9,1.1c0.2,0.7,0.2,1.5,0.2,2.4c0,0.5-0.1,1.1-0.2,1.8c-0.1,0.7-0.6,1.5-1.2,2.5
					c-0.3,0.4-0.9,1-1.8,1.9c-0.9,0.9-2,1.9-3.3,3.1c-1.3,1.1-2.8,2.3-4.5,3.6c-1.7,1.2-3.6,2.4-5.6,3.4c-2,1-4.5,2-7.7,3.1
					c-3.1,1-5.8,1.5-8.2,1.5c-2.7,0-5-0.3-7-1c-1.9-0.7-3.5-1.6-4.8-2.8s-2.2-2.6-2.7-4.2s-0.9-3.4-0.9-5.3c0-2.4,0.3-5,1.1-7.8
					c0.7-2.8,1.8-5.6,3.1-8.4c1.3-2.8,2.9-5.7,4.7-8.6c1.8-2.8,3.8-5.6,6-8.2c2.2-2.6,4.5-5,6.9-7.3c2.4-2.2,4.9-4.2,7.5-5.8
					c2.6-1.6,5.1-2.9,7.7-3.9c2.6-1,5.1-1.4,7.6-1.4c1.2,0,2.4,0.1,3.5,0.4c1.1,0.3,2.1,0.7,2.9,1.4c0.9,0.6,1.5,1.4,2,2.4
					C150,78.4,150.2,79.6,150.2,81z"/>
				<path class="st6" d="M189.1,132.8c1-3.3,2-6.6,2.9-10c0.1-0.3,0.2-0.6,0.2-0.9c-1,0.1-1.8,0.3-2.6,0.6c-1,0.5-2,1-2.9,1.7
					c-1,0.7-2,1.4-3.1,2.2s-2.5,1.5-4.3,2.2c-1.7,0.7-3.9,1.2-6.4,1.7c-2.6,0.5-5.8,0.7-9.6,0.7c-1.9,0-3.6-0.3-4.9-1
					c-1.4-0.6-2.6-1.5-3.5-2.6c-0.9-1.1-1.6-2.3-2.1-3.8c-0.5-1.4-0.7-2.9-0.7-4.5c0-2,0.5-3.7,1.4-5.2c1-1.5,2.2-2.8,3.7-3.9
					c1.5-1.1,3.3-1.9,5.2-2.4c1.9-0.6,3.9-0.8,5.8-0.8c3.6,0,6.6-0.1,9.1-0.4c2.4-0.3,4.3-0.6,5.7-1c1.4-0.4,2.4-0.9,3.1-1.4
					c0.6-0.5,0.9-1,0.9-1.4c0-0.3-0.1-0.6-0.3-0.9c-0.2-0.3-0.5-0.5-0.9-0.7c-0.3-0.2-0.7-0.3-1.2-0.5c-0.5-0.1-0.9-0.2-1.4-0.2
					c-1.9,0-3.6-0.2-5.4-0.6c-1.8-0.3-3.3-1-4.6-1.8c-1.4-0.8-2.4-1.9-3.2-3.1c-0.8-1.2-1.2-2.8-1.2-4.5c0-1.5,0.6-2.8,1.9-4
					c1.2-1.2,2.8-2.3,4.8-3.1c1.9-0.9,4.1-1.5,6.4-2c2.3-0.5,4.5-0.7,6.7-0.7c1.8,0,3.3,0.2,4.5,0.5c1.2,0.3,2.2,0.8,2.9,1.4
					c0.7,0.6,1.3,1.5,1.6,2.4c0.3,1,0.5,2.2,0.5,3.6c0,0.5,0,0.9,0.1,1.2c0.1,0.3,0.2,0.7,0.3,1c0.2,0.3,0.5,0.5,0.9,0.6
					c0.2,0.1,0.5,0.2,0.9,0.2c2-4.2,4.3-8.1,4.3-12.9c-0.9-0.9-1.8-1.7-2.8-2.4c-1.7-1.1-3.6-1.8-5.8-2.3c-2.2-0.5-4.4-0.7-6.9-0.7
					c-2.3,0-4.8,0.2-7.1,0.5c-2.4,0.3-4.8,0.9-7,1.5s-4.4,1.4-6.4,2.3c-2,0.9-3.7,2-5.2,3.2s-2.7,2.6-3.5,4c-0.9,1.5-1.3,3-1.3,4.8
					c0,1.8,0.5,3.5,1.5,5.3c1,1.8,2.7,3.6,5.2,5.4c-3.2,0.4-6.2,1.1-9.1,2.3c-2.8,1.1-5.3,2.5-7.4,4.1c-2.2,1.7-3.8,3.6-5,5.8
					c-1.2,2.2-1.9,4.7-1.9,7.4c0,3.1,0.6,5.9,1.6,8.2c1.1,2.3,2.6,4.3,4.5,5.8c1.9,1.5,4.1,2.7,6.7,3.5c2.6,0.8,5.3,1.2,8.2,1.2
					c3.2,0,6.2-0.2,9.2-0.7c2.9-0.5,5.7-1,8.2-1.8c2.6-0.7,4.9-1.5,7-2.4C188,133.3,188.6,133,189.1,132.8z"/>
			</g>
		</g>
	</g>
	<g id="TIED">
		<text transform="matrix(1 0 0 1 21.5295 238.0246)" class="st2 st7 st8">TIE SCORE!</text>
	</g>
</g>
<g id="Layer_2">
</g>
</svg>
