<?xml version="1.0" standalone="no"?>
<!DOCTYPE svg PUBLIC "-//W3C//DTD SVG 20010904//EN"
 "http://www.w3.org/TR/2001/REC-SVG-20010904/DTD/svg10.dtd">
<svg version="1.0" xmlns="http://www.w3.org/2000/svg"
 width="700.000000pt" height="700.000000pt" viewBox="0 0 700.000000 700.000000"
 preserveAspectRatio="xMidYMid meet">
<metadata>
Created by potrace 1.11, written by Peter Selinger 2001-2013
</metadata>
<g transform="translate(0.000000,700.000000) scale(0.100000,-0.100000)"
fill="#000000" stroke="none">
<path d="M1910 6423 c-43 -3 -162 -18 -225 -29 -557 -95 -1075 -494 -1319
-1015 -75 -162 -135 -354 -151 -489 -4 -30 -10 -59 -13 -65 -10 -15 -11 -352
-2 -388 5 -17 11 -53 15 -79 7 -58 51 -213 80 -283 62 -152 86 -205 135 -300
129 -251 315 -527 565 -840 43 -55 82 -102 85 -105 3 -3 34 -39 69 -80 35 -41
87 -100 115 -131 28 -31 89 -98 136 -150 158 -176 672 -683 890 -879 52 -47
102 -92 110 -100 8 -9 85 -76 170 -150 85 -74 157 -137 160 -140 7 -8 272
-228 323 -268 23 -18 51 -41 62 -50 46 -39 274 -221 327 -261 l58 -43 37 28
c50 37 327 256 333 263 3 4 39 33 80 66 73 57 390 323 400 335 3 3 57 50 120
105 63 55 122 107 130 115 9 8 61 56 115 105 183 166 269 249 535 515 228 228
319 322 473 494 15 17 36 40 46 51 26 29 90 103 136 159 22 27 48 58 58 70 10
11 29 35 42 51 124 158 161 206 235 310 318 446 497 821 556 1165 10 57 11
338 2 410 -15 106 -65 327 -77 334 -4 3 -37 -29 -74 -70 -37 -41 -67 -72 -67
-69 0 4 31 41 69 82 l69 76 -24 65 c-316 839 -1197 1327 -2079 1151 -283 -56
-590 -204 -805 -387 -90 -77 -209 -198 -260 -265 -23 -32 -45 -57 -49 -57 -3
0 -34 35 -69 78 -119 147 -284 292 -447 392 -189 116 -441 215 -625 245 -19 3
-46 7 -60 10 -84 15 -284 24 -390 18z m4624 -1466 c-22 -24 -164 -181 -316
-350 -152 -169 -283 -315 -290 -325 -7 -9 -24 -26 -38 -37 -15 -11 -10 -3 11
20 20 22 141 157 269 300 128 143 267 298 309 343 42 46 78 88 80 94 1 5 5 7
8 4 3 -3 -12 -25 -33 -49z m-784 -872 c-67 -74 -124 -135 -127 -135 -5 0 105
125 191 217 97 103 55 51 -64 -82z m-217 -242 c-49 -54 -227 -252 -396 -440
-170 -189 -311 -343 -314 -343 -2 0 53 64 124 143 415 461 495 550 563 627 68
77 99 109 108 110 2 0 -36 -44 -85 -97z m-793 -883 c-45 -50 -88 -93 -94 -97
-6 -4 29 37 78 90 49 53 91 97 93 97 3 0 -32 -41 -77 -90z m-136 -153 c-22
-24 -41 -42 -43 -40 -5 3 70 83 77 83 3 0 -13 -19 -34 -43z m-130 -143 c-43
-48 -101 -112 -128 -143 -27 -31 -47 -51 -45 -45 2 7 56 69 119 139 63 70 117
131 119 137 1 5 6 7 8 4 3 -3 -30 -45 -73 -92z m-224 -251 c-24 -27 -46 -50
-48 -53 -3 -3 -1 2 4 11 13 23 78 96 83 92 2 -1 -16 -24 -39 -50z m-95 -101
l-39 -37 35 41 c19 22 36 39 39 37 2 -2 -13 -20 -35 -41z m-157 -179 c-154
-171 -248 -270 -164 -173 165 190 272 308 279 309 5 1 -47 -61 -115 -136z
m-218 -246 c0 -1 -23 -25 -52 -52 l-52 -50 44 51 c38 44 60 63 60 51z m-141
-154 c-25 -27 -83 -90 -129 -142 -45 -51 -81 -89 -79 -83 6 15 238 272 246
272 4 0 -13 -21 -38 -47z m-400 -445 c-100 -112 -197 -220 -216 -241 -19 -22
-36 -37 -37 -35 -4 4 428 486 433 482 1 -1 -79 -94 -180 -206z"/>
</g>
</svg>
